{
	"patcher" : 	{
		"fileversion" : 1,
		"rect" : [ 18.0, 44.0, 576.0, 446.0 ],
		"bglocked" : 0,
		"defrect" : [ 18.0, 44.0, 576.0, 446.0 ],
		"openrect" : [ 0.0, 0.0, 0.0, 0.0 ],
		"openinpresentation" : 0,
		"default_fontsize" : 12.0,
		"default_fontface" : 0,
		"default_fontname" : "Arial",
		"gridonopen" : 0,
		"gridsize" : [ 15.0, 15.0 ],
		"gridsnaponopen" : 0,
		"toolbarvisible" : 1,
		"boxanimatetime" : 200,
		"imprint" : 0,
		"boxes" : [ 			{
				"box" : 				{
					"maxclass" : "message",
					"text" : "10 12. 13 14",
					"patching_rect" : [ 425.0, 144.0, 75.0, 18.0 ],
					"id" : "obj-1",
					"numinlets" : 2,
					"fontname" : "Arial",
					"numoutlets" : 1,
					"outlettype" : [ "" ],
					"fontsize" : 12.0
				}

			}
, 			{
				"box" : 				{
					"maxclass" : "message",
					"patching_rect" : [ 159.0, 291.0, 99.0, 18.0 ],
					"id" : "obj-2",
					"numinlets" : 2,
					"fontname" : "Arial",
					"numoutlets" : 1,
					"outlettype" : [ "" ],
					"fontsize" : 12.0
				}

			}
, 			{
				"box" : 				{
					"maxclass" : "comment",
					"text" : "University of California, Santa Cruz",
					"patching_rect" : [ 34.0, 402.0, 210.0, 20.0 ],
					"id" : "obj-3",
					"numinlets" : 1,
					"fontname" : "Arial",
					"numoutlets" : 0,
					"fontsize" : 12.0
				}

			}
, 			{
				"box" : 				{
					"maxclass" : "comment",
					"text" : "Peter Elsea 1995",
					"patching_rect" : [ 35.0, 383.0, 121.0, 20.0 ],
					"id" : "obj-4",
					"numinlets" : 1,
					"fontname" : "Arial",
					"numoutlets" : 0,
					"fontsize" : 12.0
				}

			}
, 			{
				"box" : 				{
					"maxclass" : "message",
					"text" : "1 2 3 4 5 6",
					"patching_rect" : [ 438.0, 203.0, 65.0, 18.0 ],
					"id" : "obj-6",
					"numinlets" : 2,
					"fontname" : "Arial",
					"numoutlets" : 1,
					"outlettype" : [ "" ],
					"fontsize" : 12.0
				}

			}
, 			{
				"box" : 				{
					"maxclass" : "number",
					"triscale" : 0.9,
					"patching_rect" : [ 392.0, 203.0, 38.0, 20.0 ],
					"id" : "obj-7",
					"numinlets" : 1,
					"fontname" : "Arial",
					"numoutlets" : 2,
					"htextcolor" : [ 0.870588, 0.870588, 0.870588, 1.0 ],
					"outlettype" : [ "int", "bang" ],
					"fontsize" : 12.0,
					"bgcolor" : [ 0.866667, 0.866667, 0.866667, 1.0 ]
				}

			}
, 			{
				"box" : 				{
					"maxclass" : "comment",
					"text" : "INT or float in right replaces all members of stored list.",
					"linecount" : 3,
					"patching_rect" : [ 263.0, 180.0, 126.0, 48.0 ],
					"id" : "obj-8",
					"numinlets" : 1,
					"fontname" : "Arial",
					"numoutlets" : 0,
					"fontsize" : 12.0
				}

			}
, 			{
				"box" : 				{
					"maxclass" : "flonum",
					"triscale" : 0.9,
					"patching_rect" : [ 222.0, 195.0, 39.0, 20.0 ],
					"id" : "obj-9",
					"numinlets" : 1,
					"fontname" : "Arial",
					"numoutlets" : 2,
					"htextcolor" : [ 0.870588, 0.870588, 0.870588, 1.0 ],
					"mouseup" : 1,
					"outlettype" : [ "float", "bang" ],
					"fontsize" : 12.0,
					"bgcolor" : [ 0.866667, 0.866667, 0.866667, 1.0 ]
				}

			}
, 			{
				"box" : 				{
					"maxclass" : "number",
					"triscale" : 0.9,
					"patching_rect" : [ 197.0, 173.0, 38.0, 20.0 ],
					"id" : "obj-10",
					"numinlets" : 1,
					"fontname" : "Arial",
					"numoutlets" : 2,
					"htextcolor" : [ 0.870588, 0.870588, 0.870588, 1.0 ],
					"outlettype" : [ "int", "bang" ],
					"fontsize" : 12.0,
					"bgcolor" : [ 0.866667, 0.866667, 0.866667, 1.0 ]
				}

			}
, 			{
				"box" : 				{
					"maxclass" : "flonum",
					"triscale" : 0.9,
					"patching_rect" : [ 122.0, 195.0, 39.0, 20.0 ],
					"id" : "obj-11",
					"numinlets" : 1,
					"fontname" : "Arial",
					"numoutlets" : 2,
					"htextcolor" : [ 0.870588, 0.870588, 0.870588, 1.0 ],
					"outlettype" : [ "float", "bang" ],
					"fontsize" : 12.0,
					"bgcolor" : [ 0.866667, 0.866667, 0.866667, 1.0 ]
				}

			}
, 			{
				"box" : 				{
					"maxclass" : "message",
					"text" : "1 3 5",
					"patching_rect" : [ 102.0, 143.0, 35.0, 18.0 ],
					"id" : "obj-12",
					"numinlets" : 2,
					"fontname" : "Arial",
					"numoutlets" : 1,
					"outlettype" : [ "" ],
					"fontsize" : 12.0
				}

			}
, 			{
				"box" : 				{
					"maxclass" : "message",
					"text" : "1.1 2.2 3.3",
					"patching_rect" : [ 139.0, 143.0, 65.0, 18.0 ],
					"id" : "obj-13",
					"numinlets" : 2,
					"fontname" : "Arial",
					"numoutlets" : 1,
					"outlettype" : [ "" ],
					"fontsize" : 12.0
				}

			}
, 			{
				"box" : 				{
					"maxclass" : "comment",
					"text" : "Type of output member will be float if either input member is float.",
					"linecount" : 2,
					"patching_rect" : [ 299.0, 314.0, 194.0, 34.0 ],
					"id" : "obj-14",
					"numinlets" : 1,
					"fontname" : "Arial",
					"numoutlets" : 0,
					"fontsize" : 12.0
				}

			}
, 			{
				"box" : 				{
					"maxclass" : "message",
					"text" : "5 5 5 4 5 6",
					"patching_rect" : [ 403.0, 293.0, 141.0, 18.0 ],
					"id" : "obj-15",
					"numinlets" : 2,
					"fontname" : "Arial",
					"numoutlets" : 1,
					"outlettype" : [ "" ],
					"fontsize" : 12.0
				}

			}
, 			{
				"box" : 				{
					"maxclass" : "newobj",
					"text" : "Ladd 4 3 2",
					"patching_rect" : [ 418.0, 232.0, 65.0, 20.0 ],
					"id" : "obj-16",
					"numinlets" : 2,
					"fontname" : "Arial",
					"numoutlets" : 1,
					"outlettype" : [ "" ],
					"fontsize" : 12.0
				}

			}
, 			{
				"box" : 				{
					"maxclass" : "comment",
					"text" : "ARGS preset stored list.",
					"linecount" : 2,
					"patching_rect" : [ 488.0, 231.0, 83.0, 34.0 ],
					"id" : "obj-17",
					"numinlets" : 1,
					"fontname" : "Arial",
					"numoutlets" : 0,
					"fontsize" : 12.0
				}

			}
, 			{
				"box" : 				{
					"maxclass" : "comment",
					"text" : "BANG recalculates last output",
					"linecount" : 3,
					"patching_rect" : [ 71.0, 314.0, 83.0, 48.0 ],
					"id" : "obj-18",
					"numinlets" : 1,
					"fontname" : "Arial",
					"numoutlets" : 0,
					"fontsize" : 12.0
				}

			}
, 			{
				"box" : 				{
					"maxclass" : "comment",
					"text" : "CLEAR sets stored list to 0.",
					"linecount" : 3,
					"patching_rect" : [ 18.0, 235.0, 71.0, 48.0 ],
					"id" : "obj-19",
					"numinlets" : 1,
					"fontname" : "Arial",
					"numoutlets" : 0,
					"fontsize" : 12.0
				}

			}
, 			{
				"box" : 				{
					"maxclass" : "comment",
					"text" : "INT or FLOAT in left input adds constant to stored list",
					"linecount" : 7,
					"patching_rect" : [ 18.0, 130.0, 63.0, 103.0 ],
					"id" : "obj-20",
					"numinlets" : 1,
					"fontname" : "Arial",
					"numoutlets" : 0,
					"fontsize" : 12.0
				}

			}
, 			{
				"box" : 				{
					"maxclass" : "message",
					"text" : "clear",
					"patching_rect" : [ 89.0, 236.0, 38.0, 18.0 ],
					"id" : "obj-21",
					"numinlets" : 2,
					"fontname" : "Arial",
					"numoutlets" : 1,
					"outlettype" : [ "" ],
					"fontsize" : 12.0
				}

			}
, 			{
				"box" : 				{
					"maxclass" : "newobj",
					"text" : "Ladd",
					"patching_rect" : [ 159.0, 242.0, 36.0, 20.0 ],
					"id" : "obj-22",
					"numinlets" : 2,
					"fontname" : "Arial",
					"numoutlets" : 1,
					"outlettype" : [ "" ],
					"fontsize" : 12.0
				}

			}
, 			{
				"box" : 				{
					"maxclass" : "number",
					"triscale" : 0.9,
					"patching_rect" : [ 96.0, 173.0, 38.0, 20.0 ],
					"id" : "obj-23",
					"numinlets" : 1,
					"fontname" : "Arial",
					"numoutlets" : 2,
					"htextcolor" : [ 0.870588, 0.870588, 0.870588, 1.0 ],
					"outlettype" : [ "int", "bang" ],
					"fontsize" : 12.0,
					"bgcolor" : [ 0.866667, 0.866667, 0.866667, 1.0 ]
				}

			}
, 			{
				"box" : 				{
					"maxclass" : "button",
					"patching_rect" : [ 97.0, 291.0, 15.0, 15.0 ],
					"id" : "obj-25",
					"numinlets" : 1,
					"numoutlets" : 1,
					"outlettype" : [ "bang" ]
				}

			}
, 			{
				"box" : 				{
					"maxclass" : "comment",
					"text" : "List in left is added to stored list and output.",
					"linecount" : 2,
					"patching_rect" : [ 102.0, 100.0, 125.0, 34.0 ],
					"id" : "obj-26",
					"numinlets" : 1,
					"fontname" : "Arial",
					"numoutlets" : 0,
					"fontsize" : 12.0
				}

			}
, 			{
				"box" : 				{
					"maxclass" : "comment",
					"text" : "List in right is stored.",
					"patching_rect" : [ 285.0, 119.0, 126.0, 20.0 ],
					"id" : "obj-27",
					"numinlets" : 1,
					"fontname" : "Arial",
					"numoutlets" : 0,
					"fontsize" : 12.0
				}

			}
, 			{
				"box" : 				{
					"maxclass" : "message",
					"text" : "2 4 6",
					"patching_rect" : [ 246.0, 144.0, 35.0, 18.0 ],
					"id" : "obj-28",
					"numinlets" : 2,
					"fontname" : "Arial",
					"numoutlets" : 1,
					"outlettype" : [ "" ],
					"fontsize" : 12.0
				}

			}
, 			{
				"box" : 				{
					"maxclass" : "message",
					"text" : "2.2 4.4 3.3",
					"patching_rect" : [ 284.0, 144.0, 69.0, 18.0 ],
					"id" : "obj-29",
					"numinlets" : 2,
					"fontname" : "Arial",
					"numoutlets" : 1,
					"outlettype" : [ "" ],
					"fontsize" : 12.0
				}

			}
, 			{
				"box" : 				{
					"maxclass" : "message",
					"text" : "1 2 3 4 5 6",
					"patching_rect" : [ 354.0, 144.0, 65.0, 18.0 ],
					"id" : "obj-30",
					"numinlets" : 2,
					"fontname" : "Arial",
					"numoutlets" : 1,
					"outlettype" : [ "" ],
					"fontsize" : 12.0
				}

			}
, 			{
				"box" : 				{
					"maxclass" : "comment",
					"text" : "Length of output follows length of left input.",
					"linecount" : 2,
					"patching_rect" : [ 154.0, 314.0, 145.0, 34.0 ],
					"id" : "obj-31",
					"numinlets" : 1,
					"fontname" : "Arial",
					"numoutlets" : 0,
					"fontsize" : 12.0
				}

			}
, 			{
				"box" : 				{
					"maxclass" : "comment",
					"text" : "Add two lists, member by member.",
					"patching_rect" : [ 16.0, 51.0, 250.0, 23.0 ],
					"id" : "obj-32",
					"numinlets" : 1,
					"fontname" : "Arial",
					"numoutlets" : 0,
					"fontsize" : 14.0
				}

			}
, 			{
				"box" : 				{
					"maxclass" : "comment",
					"text" : "Ladd",
					"patching_rect" : [ 16.0, 16.0, 116.0, 34.0 ],
					"id" : "obj-33",
					"numinlets" : 1,
					"fontname" : "Arial",
					"numoutlets" : 0,
					"fontsize" : 24.0
				}

			}
 ],
		"lines" : [ 			{
				"patchline" : 				{
					"source" : [ "obj-16", 0 ],
					"destination" : [ "obj-15", 1 ],
					"hidden" : 0,
					"midpoints" : [ 427.5, 272.0, 534.5, 272.0 ]
				}

			}
, 			{
				"patchline" : 				{
					"source" : [ "obj-22", 0 ],
					"destination" : [ "obj-2", 1 ],
					"hidden" : 0,
					"midpoints" : [ 168.5, 281.0, 248.5, 281.0 ]
				}

			}
, 			{
				"patchline" : 				{
					"source" : [ "obj-7", 0 ],
					"destination" : [ "obj-16", 0 ],
					"hidden" : 0,
					"midpoints" : [ 401.5, 225.0, 427.5, 225.0 ]
				}

			}
, 			{
				"patchline" : 				{
					"source" : [ "obj-6", 0 ],
					"destination" : [ "obj-16", 0 ],
					"hidden" : 0,
					"midpoints" : [ 447.5, 225.0, 427.5, 225.0 ]
				}

			}
, 			{
				"patchline" : 				{
					"source" : [ "obj-30", 0 ],
					"destination" : [ "obj-22", 1 ],
					"hidden" : 0,
					"midpoints" : [ 363.5, 170.0, 185.5, 170.0 ]
				}

			}
, 			{
				"patchline" : 				{
					"source" : [ "obj-29", 0 ],
					"destination" : [ "obj-22", 1 ],
					"hidden" : 0,
					"midpoints" : [ 293.5, 170.0, 185.5, 170.0 ]
				}

			}
, 			{
				"patchline" : 				{
					"source" : [ "obj-28", 0 ],
					"destination" : [ "obj-22", 1 ],
					"hidden" : 0,
					"midpoints" : [ 255.5, 170.0, 185.5, 170.0 ]
				}

			}
, 			{
				"patchline" : 				{
					"source" : [ "obj-10", 0 ],
					"destination" : [ "obj-22", 1 ],
					"hidden" : 0,
					"midpoints" : [ 206.5, 218.0, 185.5, 218.0 ]
				}

			}
, 			{
				"patchline" : 				{
					"source" : [ "obj-9", 0 ],
					"destination" : [ "obj-22", 1 ],
					"hidden" : 0,
					"midpoints" : [ 231.5, 218.0, 185.5, 218.0 ]
				}

			}
, 			{
				"patchline" : 				{
					"source" : [ "obj-1", 0 ],
					"destination" : [ "obj-22", 1 ],
					"hidden" : 0,
					"midpoints" : [ 434.5, 170.0, 185.5, 170.0 ]
				}

			}
, 			{
				"patchline" : 				{
					"source" : [ "obj-25", 0 ],
					"destination" : [ "obj-22", 0 ],
					"hidden" : 0,
					"midpoints" : [ 106.0, 311.0, 144.0, 311.0, 144.0, 238.0, 168.5, 238.0 ]
				}

			}
, 			{
				"patchline" : 				{
					"source" : [ "obj-23", 0 ],
					"destination" : [ "obj-22", 0 ],
					"hidden" : 0,
					"midpoints" : [ 105.5, 218.0, 168.5, 218.0 ]
				}

			}
, 			{
				"patchline" : 				{
					"source" : [ "obj-21", 0 ],
					"destination" : [ "obj-22", 0 ],
					"hidden" : 0,
					"midpoints" : [ 98.5, 259.0, 132.0, 259.0, 132.0, 230.0, 168.5, 230.0 ]
				}

			}
, 			{
				"patchline" : 				{
					"source" : [ "obj-13", 0 ],
					"destination" : [ "obj-22", 0 ],
					"hidden" : 0,
					"midpoints" : [ 148.5, 169.0, 168.5, 169.0 ]
				}

			}
, 			{
				"patchline" : 				{
					"source" : [ "obj-12", 0 ],
					"destination" : [ "obj-22", 0 ],
					"hidden" : 0,
					"midpoints" : [ 111.5, 169.0, 168.5, 169.0 ]
				}

			}
, 			{
				"patchline" : 				{
					"source" : [ "obj-11", 0 ],
					"destination" : [ "obj-22", 0 ],
					"hidden" : 0,
					"midpoints" : [ 131.5, 218.0, 168.5, 218.0 ]
				}

			}
 ]
	}

}
