{
	"patcher" : 	{
		"fileversion" : 1,
		"rect" : [ 13.0, 44.0, 697.0, 629.0 ],
		"bglocked" : 0,
		"defrect" : [ 13.0, 44.0, 697.0, 629.0 ],
		"openrect" : [ 0.0, 0.0, 0.0, 0.0 ],
		"openinpresentation" : 0,
		"default_fontsize" : 12.0,
		"default_fontface" : 0,
		"default_fontname" : "Arial",
		"gridonopen" : 0,
		"gridsize" : [ 15.0, 15.0 ],
		"gridsnaponopen" : 0,
		"toolbarvisible" : 1,
		"boxanimatetime" : 200,
		"imprint" : 0,
		"enablehscroll" : 1,
		"enablevscroll" : 1,
		"boxes" : [ 			{
				"box" : 				{
					"maxclass" : "newobj",
					"text" : "sel 1",
					"numinlets" : 2,
					"id" : "obj-17",
					"fontname" : "Arial",
					"numoutlets" : 2,
					"patching_rect" : [ 554.0, 252.0, 36.0, 20.0 ],
					"outlettype" : [ "bang", "" ],
					"fontsize" : 12.0
				}

			}
, 			{
				"box" : 				{
					"maxclass" : "message",
					"text" : "noseedout",
					"linecount" : 2,
					"numinlets" : 2,
					"id" : "obj-1",
					"fontname" : "Arial",
					"numoutlets" : 1,
					"patching_rect" : [ 394.0, 288.0, 50.0, 32.0 ],
					"outlettype" : [ "" ],
					"fontsize" : 12.0
				}

			}
, 			{
				"box" : 				{
					"maxclass" : "message",
					"text" : "seedout",
					"linecount" : 2,
					"numinlets" : 2,
					"id" : "obj-2",
					"fontname" : "Arial",
					"numoutlets" : 1,
					"patching_rect" : [ 378.0, 237.0, 38.0, 32.0 ],
					"outlettype" : [ "" ],
					"fontsize" : 12.0
				}

			}
, 			{
				"box" : 				{
					"maxclass" : "message",
					"text" : "clear",
					"numinlets" : 2,
					"id" : "obj-3",
					"fontname" : "Arial",
					"numoutlets" : 1,
					"patching_rect" : [ 300.0, 288.0, 39.0, 18.0 ],
					"outlettype" : [ "" ],
					"fontsize" : 12.0
				}

			}
, 			{
				"box" : 				{
					"maxclass" : "message",
					"text" : "seed 1 2",
					"linecount" : 2,
					"numinlets" : 2,
					"id" : "obj-4",
					"fontname" : "Arial",
					"numoutlets" : 1,
					"patching_rect" : [ 224.0, 281.0, 42.0, 32.0 ],
					"outlettype" : [ "" ],
					"fontsize" : 12.0
				}

			}
, 			{
				"box" : 				{
					"maxclass" : "message",
					"text" : "seed 2 1",
					"linecount" : 2,
					"numinlets" : 2,
					"id" : "obj-5",
					"fontname" : "Arial",
					"numoutlets" : 1,
					"patching_rect" : [ 224.0, 237.0, 42.0, 32.0 ],
					"outlettype" : [ "" ],
					"fontsize" : 12.0
				}

			}
, 			{
				"box" : 				{
					"maxclass" : "number",
					"format" : 4,
					"numinlets" : 1,
					"cantchange" : 1,
					"htextcolor" : [ 0.870588, 0.870588, 0.870588, 1.0 ],
					"id" : "obj-6",
					"fontname" : "Arial",
					"numoutlets" : 2,
					"triscale" : 0.9,
					"patching_rect" : [ 591.0, 392.0, 43.0, 20.0 ],
					"outlettype" : [ "int", "bang" ],
					"fontsize" : 12.0,
					"bgcolor" : [ 0.866667, 0.866667, 0.866667, 1.0 ],
					"triangle" : 0
				}

			}
, 			{
				"box" : 				{
					"maxclass" : "newobj",
					"text" : "noteout",
					"linecount" : 2,
					"numinlets" : 3,
					"id" : "obj-7",
					"fontname" : "Arial",
					"numoutlets" : 0,
					"patching_rect" : [ 485.0, 426.0, 35.0, 34.0 ],
					"fontsize" : 12.0
				}

			}
, 			{
				"box" : 				{
					"maxclass" : "newobj",
					"text" : "makenote 90 270",
					"numinlets" : 3,
					"id" : "obj-8",
					"fontname" : "Arial",
					"numoutlets" : 2,
					"patching_rect" : [ 485.0, 392.0, 101.0, 20.0 ],
					"outlettype" : [ "float", "float" ],
					"fontsize" : 12.0
				}

			}
, 			{
				"box" : 				{
					"maxclass" : "newobj",
					"text" : "expr ( $f1 * 10000) % 24 + 36",
					"numinlets" : 1,
					"id" : "obj-9",
					"fontname" : "Arial",
					"numoutlets" : 1,
					"patching_rect" : [ 485.0, 360.0, 174.0, 20.0 ],
					"outlettype" : [ "" ],
					"fontsize" : 12.0
				}

			}
, 			{
				"box" : 				{
					"maxclass" : "message",
					"text" : "seed 0.45",
					"numinlets" : 2,
					"id" : "obj-10",
					"fontname" : "Arial",
					"numoutlets" : 1,
					"patching_rect" : [ 554.0, 276.0, 67.0, 18.0 ],
					"outlettype" : [ "" ],
					"fontsize" : 12.0
				}

			}
, 			{
				"box" : 				{
					"maxclass" : "toggle",
					"numinlets" : 1,
					"id" : "obj-11",
					"numoutlets" : 1,
					"patching_rect" : [ 485.0, 252.0, 18.0, 18.0 ],
					"outlettype" : [ "int" ]
				}

			}
, 			{
				"box" : 				{
					"maxclass" : "newobj",
					"text" : "metro 150",
					"numinlets" : 2,
					"id" : "obj-12",
					"fontname" : "Arial",
					"numoutlets" : 1,
					"patching_rect" : [ 485.0, 276.0, 66.0, 20.0 ],
					"outlettype" : [ "bang" ],
					"fontsize" : 12.0
				}

			}
, 			{
				"box" : 				{
					"maxclass" : "flonum",
					"numinlets" : 1,
					"cantchange" : 1,
					"htextcolor" : [ 0.870588, 0.870588, 0.870588, 1.0 ],
					"id" : "obj-13",
					"fontname" : "Arial",
					"numoutlets" : 2,
					"triscale" : 0.9,
					"patching_rect" : [ 485.0, 333.0, 87.0, 20.0 ],
					"outlettype" : [ "float", "bang" ],
					"fontsize" : 12.0,
					"bgcolor" : [ 0.866667, 0.866667, 0.866667, 1.0 ],
					"triangle" : 0
				}

			}
, 			{
				"box" : 				{
					"maxclass" : "newobj",
					"text" : "Lexpr 3.45 * fy-1 * (1 - fy-1 )",
					"numinlets" : 2,
					"id" : "obj-14",
					"fontname" : "Arial",
					"numoutlets" : 1,
					"patching_rect" : [ 485.0, 307.0, 176.0, 20.0 ],
					"outlettype" : [ "" ],
					"fontsize" : 12.0
				}

			}
, 			{
				"box" : 				{
					"maxclass" : "number",
					"numinlets" : 1,
					"htextcolor" : [ 0.870588, 0.870588, 0.870588, 1.0 ],
					"id" : "obj-15",
					"fontname" : "Arial",
					"numoutlets" : 2,
					"triscale" : 0.9,
					"patching_rect" : [ 597.0, 58.0, 38.0, 20.0 ],
					"outlettype" : [ "int", "bang" ],
					"fontsize" : 12.0,
					"bgcolor" : [ 0.866667, 0.866667, 0.866667, 1.0 ]
				}

			}
, 			{
				"box" : 				{
					"maxclass" : "message",
					"text" : "0 1 2 3 4 5 6 7 8 9",
					"numinlets" : 2,
					"id" : "obj-16",
					"fontname" : "Arial",
					"numoutlets" : 1,
					"patching_rect" : [ 471.0, 60.0, 105.0, 18.0 ],
					"outlettype" : [ "" ],
					"fontsize" : 12.0
				}

			}
, 			{
				"box" : 				{
					"maxclass" : "message",
					"text" : "0 1 3 6 10 15 21 28 36 45",
					"numinlets" : 2,
					"id" : "obj-18",
					"fontname" : "Arial",
					"numoutlets" : 1,
					"patching_rect" : [ 481.0, 142.0, 151.0, 18.0 ],
					"outlettype" : [ "" ],
					"fontsize" : 12.0
				}

			}
, 			{
				"box" : 				{
					"maxclass" : "newobj",
					"text" : "Lexpr in + iy-1 + iC",
					"numinlets" : 2,
					"id" : "obj-19",
					"fontname" : "Arial",
					"numoutlets" : 1,
					"patching_rect" : [ 471.0, 80.0, 119.0, 20.0 ],
					"outlettype" : [ "" ],
					"fontsize" : 12.0
				}

			}
, 			{
				"box" : 				{
					"maxclass" : "number",
					"numinlets" : 1,
					"htextcolor" : [ 0.870588, 0.870588, 0.870588, 1.0 ],
					"id" : "obj-20",
					"fontname" : "Arial",
					"numoutlets" : 2,
					"triscale" : 0.9,
					"patching_rect" : [ 343.0, 285.0, 38.0, 20.0 ],
					"outlettype" : [ "int", "bang" ],
					"fontsize" : 12.0,
					"mouseup" : 1,
					"bgcolor" : [ 0.866667, 0.866667, 0.866667, 1.0 ]
				}

			}
, 			{
				"box" : 				{
					"maxclass" : "button",
					"numinlets" : 1,
					"id" : "obj-21",
					"numoutlets" : 1,
					"patching_rect" : [ 335.0, 330.0, 15.0, 15.0 ],
					"outlettype" : [ "bang" ]
				}

			}
, 			{
				"box" : 				{
					"maxclass" : "message",
					"text" : "1 2",
					"numinlets" : 2,
					"id" : "obj-22",
					"fontname" : "Arial",
					"numoutlets" : 1,
					"patching_rect" : [ 224.0, 329.0, 25.0, 18.0 ],
					"outlettype" : [ "" ],
					"fontsize" : 12.0
				}

			}
, 			{
				"box" : 				{
					"maxclass" : "message",
					"numinlets" : 2,
					"id" : "obj-23",
					"fontname" : "Arial",
					"numoutlets" : 1,
					"patching_rect" : [ 280.0, 391.0, 134.0, 18.0 ],
					"outlettype" : [ "" ],
					"fontsize" : 12.0
				}

			}
, 			{
				"box" : 				{
					"maxclass" : "newobj",
					"text" : "Lexpr in + in-1",
					"numinlets" : 2,
					"id" : "obj-25",
					"fontname" : "Arial",
					"numoutlets" : 1,
					"patching_rect" : [ 278.0, 357.0, 91.0, 20.0 ],
					"outlettype" : [ "" ],
					"fontsize" : 12.0
				}

			}
, 			{
				"box" : 				{
					"maxclass" : "message",
					"text" : "0 1 2 3 4 5 6 7 8 9",
					"numinlets" : 2,
					"id" : "obj-26",
					"fontname" : "Arial",
					"numoutlets" : 1,
					"patching_rect" : [ 24.0, 237.0, 105.0, 18.0 ],
					"outlettype" : [ "" ],
					"fontsize" : 12.0
				}

			}
, 			{
				"box" : 				{
					"maxclass" : "message",
					"text" : "1 2 3 4 5 6 7 8 9",
					"numinlets" : 2,
					"id" : "obj-27",
					"fontname" : "Arial",
					"numoutlets" : 1,
					"patching_rect" : [ 42.0, 256.0, 95.0, 18.0 ],
					"outlettype" : [ "" ],
					"fontsize" : 12.0
				}

			}
, 			{
				"box" : 				{
					"maxclass" : "message",
					"numinlets" : 2,
					"id" : "obj-28",
					"fontname" : "Arial",
					"numoutlets" : 1,
					"patching_rect" : [ 24.0, 319.0, 112.0, 18.0 ],
					"outlettype" : [ "" ],
					"fontsize" : 12.0
				}

			}
, 			{
				"box" : 				{
					"maxclass" : "newobj",
					"text" : "Lexpr iy-1 + iy-2",
					"numinlets" : 2,
					"id" : "obj-30",
					"fontname" : "Arial",
					"numoutlets" : 1,
					"patching_rect" : [ 24.0, 281.0, 106.0, 20.0 ],
					"outlettype" : [ "" ],
					"fontsize" : 12.0
				}

			}
, 			{
				"box" : 				{
					"maxclass" : "newobj",
					"text" : "Lexpr in + in-1",
					"numinlets" : 2,
					"id" : "obj-31",
					"fontname" : "Arial",
					"numoutlets" : 1,
					"patching_rect" : [ 346.0, 80.0, 91.0, 20.0 ],
					"outlettype" : [ "" ],
					"fontsize" : 12.0
				}

			}
, 			{
				"box" : 				{
					"maxclass" : "message",
					"text" : "1 3 5 7 9 11 13 15 17",
					"numinlets" : 2,
					"id" : "obj-33",
					"fontname" : "Arial",
					"numoutlets" : 1,
					"patching_rect" : [ 323.0, 141.0, 151.0, 18.0 ],
					"outlettype" : [ "" ],
					"fontsize" : 12.0
				}

			}
, 			{
				"box" : 				{
					"maxclass" : "message",
					"text" : "1 2 3 4 5 6 7 8 9",
					"numinlets" : 2,
					"id" : "obj-34",
					"fontname" : "Arial",
					"numoutlets" : 1,
					"patching_rect" : [ 346.0, 60.0, 95.0, 18.0 ],
					"outlettype" : [ "" ],
					"fontsize" : 12.0
				}

			}
, 			{
				"box" : 				{
					"maxclass" : "comment",
					"text" : "Lexpr",
					"numinlets" : 1,
					"id" : "obj-35",
					"fontname" : "Arial",
					"numoutlets" : 0,
					"patching_rect" : [ 0.0, 10.0, 75.0, 34.0 ],
					"fontsize" : 24.0
				}

			}
, 			{
				"box" : 				{
					"maxclass" : "comment",
					"text" : "An object to do series expansions on lists.",
					"numinlets" : 1,
					"id" : "obj-36",
					"fontname" : "Arial",
					"numoutlets" : 0,
					"patching_rect" : [ 75.0, 21.0, 290.0, 23.0 ],
					"fontsize" : 14.0
				}

			}
, 			{
				"box" : 				{
					"maxclass" : "comment",
					"text" : "Syntax is like expr, except the variables are:",
					"numinlets" : 1,
					"id" : "obj-37",
					"fontname" : "Arial",
					"numoutlets" : 0,
					"patching_rect" : [ 7.0, 59.0, 263.0, 20.0 ],
					"fontsize" : 12.0
				}

			}
, 			{
				"box" : 				{
					"maxclass" : "comment",
					"text" : "in, fn = current member of input list.",
					"numinlets" : 1,
					"id" : "obj-38",
					"fontname" : "Arial",
					"numoutlets" : 0,
					"patching_rect" : [ 7.0, 79.0, 208.0, 20.0 ],
					"fontsize" : 12.0
				}

			}
, 			{
				"box" : 				{
					"maxclass" : "comment",
					"text" : "in-1, fn-1 = previous member of input list* as far as in-3.",
					"numinlets" : 1,
					"id" : "obj-39",
					"fontname" : "Arial",
					"numoutlets" : 0,
					"patching_rect" : [ 7.0, 99.0, 324.0, 20.0 ],
					"fontsize" : 12.0
				}

			}
, 			{
				"box" : 				{
					"maxclass" : "comment",
					"text" : "iy-1, fy-1 = previous result as far as iy-4.",
					"numinlets" : 1,
					"id" : "obj-40",
					"fontname" : "Arial",
					"numoutlets" : 0,
					"patching_rect" : [ 7.0, 119.0, 245.0, 20.0 ],
					"fontsize" : 12.0
				}

			}
, 			{
				"box" : 				{
					"maxclass" : "comment",
					"text" : "*Be sure to leave no spaces in-1 and the like,",
					"numinlets" : 1,
					"id" : "obj-41",
					"fontname" : "Arial",
					"numoutlets" : 0,
					"patching_rect" : [ 7.0, 193.0, 275.0, 20.0 ],
					"fontsize" : 12.0
				}

			}
, 			{
				"box" : 				{
					"maxclass" : "comment",
					"text" : "i indicates ints, f indicates floats. All arguments should be same type.",
					"linecount" : 2,
					"numinlets" : 1,
					"id" : "obj-42",
					"fontname" : "Arial",
					"numoutlets" : 0,
					"patching_rect" : [ 7.0, 159.0, 213.0, 34.0 ],
					"fontsize" : 12.0
				}

			}
, 			{
				"box" : 				{
					"maxclass" : "comment",
					"text" : "If args are all results, the first members of the input list are used as seeds to establish the series. (There must be enough seeds to match the oldest y term used.)",
					"linecount" : 7,
					"numinlets" : 1,
					"id" : "obj-43",
					"fontname" : "Arial",
					"numoutlets" : 0,
					"patching_rect" : [ 22.0, 343.0, 138.0, 103.0 ],
					"fontsize" : 12.0
				}

			}
, 			{
				"box" : 				{
					"maxclass" : "comment",
					"text" : "Once a series is started you can continue the series by supplying more numbers or just bangs.",
					"linecount" : 3,
					"numinlets" : 1,
					"id" : "obj-44",
					"fontname" : "Arial",
					"numoutlets" : 0,
					"patching_rect" : [ 224.0, 430.0, 188.0, 48.0 ],
					"fontsize" : 12.0
				}

			}
, 			{
				"box" : 				{
					"maxclass" : "comment",
					"text" : "(Bangs extrapolate a new n from the previous two values.)",
					"linecount" : 2,
					"numinlets" : 1,
					"id" : "obj-45",
					"fontname" : "Arial",
					"numoutlets" : 0,
					"patching_rect" : [ 224.0, 478.0, 216.0, 34.0 ],
					"fontsize" : 12.0
				}

			}
, 			{
				"box" : 				{
					"maxclass" : "comment",
					"text" : "iC, fC = constant to be received in right inlet.",
					"numinlets" : 1,
					"id" : "obj-46",
					"fontname" : "Arial",
					"numoutlets" : 0,
					"patching_rect" : [ 7.0, 139.0, 255.0, 20.0 ],
					"fontsize" : 12.0
				}

			}
, 			{
				"box" : 				{
					"maxclass" : "comment",
					"text" : "and be sure to leave space before parens.",
					"numinlets" : 1,
					"id" : "obj-47",
					"fontname" : "Arial",
					"numoutlets" : 0,
					"patching_rect" : [ 7.0, 213.0, 260.0, 20.0 ],
					"fontsize" : 12.0
				}

			}
, 			{
				"box" : 				{
					"maxclass" : "comment",
					"text" : "The exper can also be seeded with the seed message. Arguments to the seed messge are usually passed directly to the output. The message noseedout prevents this.",
					"linecount" : 5,
					"numinlets" : 1,
					"id" : "obj-48",
					"fontname" : "Arial",
					"numoutlets" : 0,
					"patching_rect" : [ 224.0, 512.0, 208.0, 75.0 ],
					"fontsize" : 12.0
				}

			}
, 			{
				"box" : 				{
					"maxclass" : "comment",
					"text" : "Here, each output term is the sum of two input terms.",
					"linecount" : 2,
					"numinlets" : 1,
					"id" : "obj-49",
					"fontname" : "Arial",
					"numoutlets" : 0,
					"patching_rect" : [ 321.0, 167.0, 156.0, 34.0 ],
					"fontsize" : 12.0
				}

			}
, 			{
				"box" : 				{
					"maxclass" : "comment",
					"text" : "Each output term is sum of input term, last output term and constant.",
					"linecount" : 3,
					"numinlets" : 1,
					"id" : "obj-50",
					"fontname" : "Arial",
					"numoutlets" : 0,
					"patching_rect" : [ 488.0, 167.0, 141.0, 48.0 ],
					"fontsize" : 12.0
				}

			}
, 			{
				"box" : 				{
					"maxclass" : "comment",
					"text" : "Lexpr can do anything expr can do.",
					"numinlets" : 1,
					"id" : "obj-51",
					"fontname" : "Arial",
					"numoutlets" : 0,
					"patching_rect" : [ 487.0, 463.0, 200.0, 20.0 ],
					"fontsize" : 12.0
				}

			}
, 			{
				"box" : 				{
					"maxclass" : "comment",
					"text" : "Here is a popular fractal generator.",
					"numinlets" : 1,
					"id" : "obj-52",
					"fontname" : "Arial",
					"numoutlets" : 0,
					"patching_rect" : [ 487.0, 484.0, 206.0, 20.0 ],
					"fontsize" : 12.0
				}

			}
, 			{
				"box" : 				{
					"maxclass" : "comment",
					"text" : "Peter Elsea 1997",
					"numinlets" : 1,
					"id" : "obj-53",
					"fontname" : "Arial",
					"numoutlets" : 0,
					"patching_rect" : [ 22.0, 531.0, 122.0, 20.0 ],
					"fontsize" : 12.0
				}

			}
, 			{
				"box" : 				{
					"maxclass" : "comment",
					"text" : "University of California, Santa Cruz",
					"linecount" : 2,
					"numinlets" : 1,
					"id" : "obj-54",
					"fontname" : "Arial",
					"numoutlets" : 0,
					"patching_rect" : [ 22.0, 552.0, 141.0, 34.0 ],
					"fontsize" : 12.0
				}

			}
, 			{
				"box" : 				{
					"maxclass" : "comment",
					"text" : "Clear sets all history to 0s",
					"numinlets" : 1,
					"id" : "obj-55",
					"fontname" : "Arial",
					"numoutlets" : 0,
					"patching_rect" : [ 224.0, 588.0, 157.0, 20.0 ],
					"fontsize" : 12.0
				}

			}
 ],
		"lines" : [ 			{
				"patchline" : 				{
					"source" : [ "obj-11", 0 ],
					"destination" : [ "obj-17", 0 ],
					"hidden" : 0,
					"midpoints" : [ 494.5, 273.0, 513.0, 273.0, 513.0, 249.0, 563.5, 249.0 ]
				}

			}
, 			{
				"patchline" : 				{
					"source" : [ "obj-17", 0 ],
					"destination" : [ "obj-10", 0 ],
					"hidden" : 0,
					"midpoints" : [  ]
				}

			}
, 			{
				"patchline" : 				{
					"source" : [ "obj-30", 0 ],
					"destination" : [ "obj-28", 1 ],
					"hidden" : 0,
					"midpoints" : [ 33.5, 314.0, 126.5, 314.0 ]
				}

			}
, 			{
				"patchline" : 				{
					"source" : [ "obj-25", 0 ],
					"destination" : [ "obj-23", 1 ],
					"hidden" : 0,
					"midpoints" : [ 287.5, 385.0, 404.5, 385.0 ]
				}

			}
, 			{
				"patchline" : 				{
					"source" : [ "obj-19", 0 ],
					"destination" : [ "obj-18", 1 ],
					"hidden" : 0,
					"midpoints" : [ 480.5, 113.0, 622.5, 113.0 ]
				}

			}
, 			{
				"patchline" : 				{
					"source" : [ "obj-31", 0 ],
					"destination" : [ "obj-33", 1 ],
					"hidden" : 0,
					"midpoints" : [ 355.5, 112.0, 464.5, 112.0 ]
				}

			}
, 			{
				"patchline" : 				{
					"source" : [ "obj-15", 0 ],
					"destination" : [ "obj-19", 1 ],
					"hidden" : 0,
					"midpoints" : [ 606.5, 77.0, 580.5, 77.0 ]
				}

			}
, 			{
				"patchline" : 				{
					"source" : [ "obj-9", 0 ],
					"destination" : [ "obj-6", 0 ],
					"hidden" : 0,
					"midpoints" : [ 494.5, 385.0, 600.5, 385.0 ]
				}

			}
, 			{
				"patchline" : 				{
					"source" : [ "obj-8", 1 ],
					"destination" : [ "obj-7", 1 ],
					"hidden" : 0,
					"midpoints" : [ 576.5, 421.0, 502.5, 421.0 ]
				}

			}
, 			{
				"patchline" : 				{
					"source" : [ "obj-16", 0 ],
					"destination" : [ "obj-19", 0 ],
					"hidden" : 0,
					"midpoints" : [  ]
				}

			}
, 			{
				"patchline" : 				{
					"source" : [ "obj-8", 0 ],
					"destination" : [ "obj-7", 0 ],
					"hidden" : 0,
					"midpoints" : [  ]
				}

			}
, 			{
				"patchline" : 				{
					"source" : [ "obj-9", 0 ],
					"destination" : [ "obj-8", 0 ],
					"hidden" : 0,
					"midpoints" : [  ]
				}

			}
, 			{
				"patchline" : 				{
					"source" : [ "obj-13", 0 ],
					"destination" : [ "obj-9", 0 ],
					"hidden" : 0,
					"midpoints" : [  ]
				}

			}
, 			{
				"patchline" : 				{
					"source" : [ "obj-14", 0 ],
					"destination" : [ "obj-13", 0 ],
					"hidden" : 0,
					"midpoints" : [  ]
				}

			}
, 			{
				"patchline" : 				{
					"source" : [ "obj-10", 0 ],
					"destination" : [ "obj-14", 0 ],
					"hidden" : 0,
					"midpoints" : [ 563.5, 299.0, 494.5, 299.0 ]
				}

			}
, 			{
				"patchline" : 				{
					"source" : [ "obj-12", 0 ],
					"destination" : [ "obj-14", 0 ],
					"hidden" : 0,
					"midpoints" : [  ]
				}

			}
, 			{
				"patchline" : 				{
					"source" : [ "obj-11", 0 ],
					"destination" : [ "obj-12", 0 ],
					"hidden" : 0,
					"midpoints" : [  ]
				}

			}
, 			{
				"patchline" : 				{
					"source" : [ "obj-34", 0 ],
					"destination" : [ "obj-31", 0 ],
					"hidden" : 0,
					"midpoints" : [  ]
				}

			}
, 			{
				"patchline" : 				{
					"source" : [ "obj-3", 0 ],
					"destination" : [ "obj-25", 0 ],
					"hidden" : 0,
					"midpoints" : [ 309.5, 320.0, 287.5, 320.0 ]
				}

			}
, 			{
				"patchline" : 				{
					"source" : [ "obj-4", 0 ],
					"destination" : [ "obj-25", 0 ],
					"hidden" : 0,
					"midpoints" : [ 233.5, 320.0, 287.5, 320.0 ]
				}

			}
, 			{
				"patchline" : 				{
					"source" : [ "obj-5", 0 ],
					"destination" : [ "obj-25", 0 ],
					"hidden" : 0,
					"midpoints" : [ 233.5, 274.0, 287.5, 274.0 ]
				}

			}
, 			{
				"patchline" : 				{
					"source" : [ "obj-20", 0 ],
					"destination" : [ "obj-25", 0 ],
					"hidden" : 0,
					"midpoints" : [ 352.5, 321.0, 287.5, 321.0 ]
				}

			}
, 			{
				"patchline" : 				{
					"source" : [ "obj-21", 0 ],
					"destination" : [ "obj-25", 0 ],
					"hidden" : 0,
					"midpoints" : [ 344.0, 350.0, 287.5, 350.0 ]
				}

			}
, 			{
				"patchline" : 				{
					"source" : [ "obj-22", 0 ],
					"destination" : [ "obj-25", 0 ],
					"hidden" : 0,
					"midpoints" : [ 233.5, 348.0, 287.5, 348.0 ]
				}

			}
, 			{
				"patchline" : 				{
					"source" : [ "obj-2", 0 ],
					"destination" : [ "obj-25", 0 ],
					"hidden" : 0,
					"midpoints" : [ 387.5, 321.0, 287.5, 321.0 ]
				}

			}
, 			{
				"patchline" : 				{
					"source" : [ "obj-1", 0 ],
					"destination" : [ "obj-25", 0 ],
					"hidden" : 0,
					"midpoints" : [ 403.5, 350.0, 287.5, 350.0 ]
				}

			}
, 			{
				"patchline" : 				{
					"source" : [ "obj-26", 0 ],
					"destination" : [ "obj-30", 0 ],
					"hidden" : 0,
					"midpoints" : [  ]
				}

			}
, 			{
				"patchline" : 				{
					"source" : [ "obj-27", 0 ],
					"destination" : [ "obj-30", 0 ],
					"hidden" : 0,
					"midpoints" : [ 51.5, 274.0, 33.5, 274.0 ]
				}

			}
 ]
	}

}
