{
	"patcher" : 	{
		"fileversion" : 1,
		"rect" : [ 554.0, 103.0, 504.0, 364.0 ],
		"bglocked" : 0,
		"defrect" : [ 554.0, 103.0, 504.0, 364.0 ],
		"openrect" : [ 0.0, 0.0, 0.0, 0.0 ],
		"openinpresentation" : 0,
		"default_fontsize" : 12.0,
		"default_fontface" : 0,
		"default_fontname" : "Arial",
		"gridonopen" : 0,
		"gridsize" : [ 15.0, 15.0 ],
		"gridsnaponopen" : 0,
		"toolbarvisible" : 1,
		"boxanimatetime" : 200,
		"imprint" : 0,
		"boxes" : [ 			{
				"box" : 				{
					"maxclass" : "comment",
					"text" : "Depreciated-Use Lpos",
					"patching_rect" : [ 9.0, 68.0, 150.0, 20.0 ],
					"numoutlets" : 0,
					"id" : "obj-32",
					"fontname" : "Arial",
					"frgb" : [ 1.0, 0.003922, 0.003922, 1.0 ],
					"fontsize" : 12.0,
					"textcolor" : [ 1.0, 0.003922, 0.003922, 1.0 ],
					"numinlets" : 1
				}

			}
, 			{
				"box" : 				{
					"maxclass" : "newobj",
					"text" : "p symbols?",
					"patching_rect" : [ 27.0, 248.0, 76.0, 20.0 ],
					"numoutlets" : 0,
					"id" : "obj-1",
					"fontname" : "Arial",
					"fontsize" : 12.0,
					"numinlets" : 0,
					"patcher" : 					{
						"fileversion" : 1,
						"rect" : [ 30.0, 70.0, 281.0, 245.0 ],
						"bglocked" : 0,
						"defrect" : [ 30.0, 70.0, 281.0, 245.0 ],
						"openrect" : [ 0.0, 0.0, 0.0, 0.0 ],
						"openinpresentation" : 0,
						"default_fontsize" : 12.0,
						"default_fontface" : 0,
						"default_fontname" : "Arial",
						"gridonopen" : 0,
						"gridsize" : [ 15.0, 15.0 ],
						"gridsnaponopen" : 0,
						"toolbarvisible" : 1,
						"boxanimatetime" : 200,
						"imprint" : 0,
						"boxes" : [ 							{
								"box" : 								{
									"maxclass" : "message",
									"text" : "1 2 3 h",
									"patching_rect" : [ 153.0, 28.0, 50.0, 18.0 ],
									"numoutlets" : 1,
									"id" : "obj-1",
									"fontname" : "Arial",
									"outlettype" : [ "" ],
									"fontsize" : 12.0,
									"numinlets" : 2
								}

							}
, 							{
								"box" : 								{
									"maxclass" : "message",
									"patching_rect" : [ 131.0, 124.0, 50.0, 18.0 ],
									"numoutlets" : 1,
									"id" : "obj-2",
									"fontname" : "Arial",
									"outlettype" : [ "" ],
									"fontsize" : 12.0,
									"numinlets" : 2
								}

							}
, 							{
								"box" : 								{
									"maxclass" : "message",
									"text" : "h",
									"patching_rect" : [ 108.0, 28.0, 18.0, 18.0 ],
									"numoutlets" : 1,
									"id" : "obj-3",
									"fontname" : "Arial",
									"outlettype" : [ "" ],
									"fontsize" : 12.0,
									"numinlets" : 2
								}

							}
, 							{
								"box" : 								{
									"maxclass" : "message",
									"text" : "b",
									"patching_rect" : [ 79.0, 28.0, 18.0, 18.0 ],
									"numoutlets" : 1,
									"id" : "obj-5",
									"fontname" : "Arial",
									"outlettype" : [ "" ],
									"fontsize" : 12.0,
									"numinlets" : 2
								}

							}
, 							{
								"box" : 								{
									"maxclass" : "message",
									"text" : "a",
									"patching_rect" : [ 58.0, 28.0, 18.0, 18.0 ],
									"numoutlets" : 1,
									"id" : "obj-6",
									"fontname" : "Arial",
									"outlettype" : [ "" ],
									"fontsize" : 12.0,
									"numinlets" : 2
								}

							}
, 							{
								"box" : 								{
									"maxclass" : "number",
									"patching_rect" : [ 79.0, 125.0, 37.0, 20.0 ],
									"numoutlets" : 2,
									"id" : "obj-7",
									"triscale" : 0.9,
									"fontname" : "Arial",
									"bgcolor" : [ 0.866667, 0.866667, 0.866667, 1.0 ],
									"htextcolor" : [ 0.870588, 0.870588, 0.870588, 1.0 ],
									"outlettype" : [ "int", "bang" ],
									"fontsize" : 12.0,
									"numinlets" : 1
								}

							}
, 							{
								"box" : 								{
									"maxclass" : "newobj",
									"text" : "lmatch a b c",
									"patching_rect" : [ 79.0, 63.0, 80.0, 20.0 ],
									"numoutlets" : 2,
									"id" : "obj-8",
									"fontname" : "Arial",
									"outlettype" : [ "int", "" ],
									"fontsize" : 12.0,
									"numinlets" : 2
								}

							}
, 							{
								"box" : 								{
									"maxclass" : "comment",
									"text" : "Symbols in lists are wild cards, but if you search for a single symbol, it must match a stored symbol.",
									"linecount" : 3,
									"patching_rect" : [ 54.0, 153.0, 198.0, 48.0 ],
									"numoutlets" : 0,
									"id" : "obj-9",
									"fontname" : "Arial",
									"fontsize" : 12.0,
									"numinlets" : 1
								}

							}
 ],
						"lines" : [ 							{
								"patchline" : 								{
									"source" : [ "obj-5", 0 ],
									"destination" : [ "obj-8", 0 ],
									"hidden" : 0,
									"midpoints" : [  ]
								}

							}
, 							{
								"patchline" : 								{
									"source" : [ "obj-6", 0 ],
									"destination" : [ "obj-8", 0 ],
									"hidden" : 0,
									"midpoints" : [  ]
								}

							}
, 							{
								"patchline" : 								{
									"source" : [ "obj-3", 0 ],
									"destination" : [ "obj-8", 0 ],
									"hidden" : 0,
									"midpoints" : [  ]
								}

							}
, 							{
								"patchline" : 								{
									"source" : [ "obj-8", 0 ],
									"destination" : [ "obj-7", 0 ],
									"hidden" : 0,
									"midpoints" : [  ]
								}

							}
, 							{
								"patchline" : 								{
									"source" : [ "obj-1", 0 ],
									"destination" : [ "obj-8", 1 ],
									"hidden" : 0,
									"midpoints" : [  ]
								}

							}
, 							{
								"patchline" : 								{
									"source" : [ "obj-8", 1 ],
									"destination" : [ "obj-2", 1 ],
									"hidden" : 0,
									"midpoints" : [ 149.5, 105.0, 171.5, 105.0 ]
								}

							}
 ]
					}
,
					"saved_object_attributes" : 					{
						"default_fontname" : "Arial",
						"fontname" : "Arial",
						"default_fontsize" : 12.0,
						"globalpatchername" : "",
						"fontface" : 0,
						"fontsize" : 12.0,
						"default_fontface" : 0
					}

				}

			}
, 			{
				"box" : 				{
					"maxclass" : "comment",
					"text" : "Peter Elsea 1995",
					"patching_rect" : [ 20.0, 330.0, 130.0, 20.0 ],
					"numoutlets" : 0,
					"id" : "obj-2",
					"fontname" : "Arial",
					"fontsize" : 12.0,
					"numinlets" : 1
				}

			}
, 			{
				"box" : 				{
					"maxclass" : "comment",
					"text" : "If wrap is on, lists that wrap around the end of the stored list will be found. Default is on.",
					"linecount" : 4,
					"patching_rect" : [ 8.0, 166.0, 135.0, 62.0 ],
					"numoutlets" : 0,
					"id" : "obj-3",
					"fontname" : "Arial",
					"fontsize" : 12.0,
					"numinlets" : 1
				}

			}
, 			{
				"box" : 				{
					"maxclass" : "message",
					"text" : "wrapon",
					"patching_rect" : [ 145.0, 191.0, 52.0, 18.0 ],
					"numoutlets" : 1,
					"id" : "obj-4",
					"fontname" : "Arial",
					"outlettype" : [ "" ],
					"fontsize" : 12.0,
					"numinlets" : 2
				}

			}
, 			{
				"box" : 				{
					"maxclass" : "message",
					"text" : "wrapoff",
					"patching_rect" : [ 145.0, 169.0, 56.0, 18.0 ],
					"numoutlets" : 1,
					"id" : "obj-5",
					"fontname" : "Arial",
					"outlettype" : [ "" ],
					"fontsize" : 12.0,
					"numinlets" : 2
				}

			}
, 			{
				"box" : 				{
					"maxclass" : "message",
					"text" : "1 2",
					"patching_rect" : [ 154.0, 88.0, 28.0, 18.0 ],
					"numoutlets" : 1,
					"id" : "obj-6",
					"fontname" : "Arial",
					"outlettype" : [ "" ],
					"fontsize" : 12.0,
					"numinlets" : 2
				}

			}
, 			{
				"box" : 				{
					"maxclass" : "message",
					"text" : "4 5 1 2",
					"patching_rect" : [ 311.0, 89.0, 52.0, 18.0 ],
					"numoutlets" : 1,
					"id" : "obj-7",
					"fontname" : "Arial",
					"outlettype" : [ "" ],
					"fontsize" : 12.0,
					"numinlets" : 2
				}

			}
, 			{
				"box" : 				{
					"maxclass" : "comment",
					"text" : "Args or list in right set list to be searched.",
					"linecount" : 2,
					"patching_rect" : [ 373.0, 75.0, 130.0, 34.0 ],
					"numoutlets" : 0,
					"id" : "obj-8",
					"fontname" : "Arial",
					"fontsize" : 12.0,
					"numinlets" : 1
				}

			}
, 			{
				"box" : 				{
					"maxclass" : "message",
					"text" : "1 2 3",
					"patching_rect" : [ 335.0, 108.0, 39.0, 18.0 ],
					"numoutlets" : 1,
					"id" : "obj-9",
					"fontname" : "Arial",
					"outlettype" : [ "" ],
					"fontsize" : 12.0,
					"numinlets" : 2
				}

			}
, 			{
				"box" : 				{
					"maxclass" : "message",
					"text" : "5 4",
					"patching_rect" : [ 279.0, 88.0, 28.0, 18.0 ],
					"numoutlets" : 1,
					"id" : "obj-10",
					"fontname" : "Arial",
					"outlettype" : [ "" ],
					"fontsize" : 12.0,
					"numinlets" : 2
				}

			}
, 			{
				"box" : 				{
					"maxclass" : "message",
					"text" : "2 3.",
					"patching_rect" : [ 191.0, 88.0, 39.0, 18.0 ],
					"numoutlets" : 1,
					"id" : "obj-11",
					"fontname" : "Arial",
					"outlettype" : [ "" ],
					"fontsize" : 12.0,
					"numinlets" : 2
				}

			}
, 			{
				"box" : 				{
					"maxclass" : "comment",
					"text" : "If match is found, location of first matching member in stored list is reported.",
					"linecount" : 4,
					"patching_rect" : [ 183.0, 228.0, 126.0, 62.0 ],
					"numoutlets" : 0,
					"id" : "obj-12",
					"fontname" : "Arial",
					"fontsize" : 12.0,
					"numinlets" : 1
				}

			}
, 			{
				"box" : 				{
					"maxclass" : "comment",
					"text" : "If match not found, input list is passed out right outlet.",
					"linecount" : 3,
					"patching_rect" : [ 347.0, 231.0, 111.0, 48.0 ],
					"numoutlets" : 0,
					"id" : "obj-13",
					"fontname" : "Arial",
					"fontsize" : 12.0,
					"numinlets" : 1
				}

			}
, 			{
				"box" : 				{
					"maxclass" : "message",
					"text" : "4 5",
					"patching_rect" : [ 241.0, 88.0, 28.0, 18.0 ],
					"numoutlets" : 1,
					"id" : "obj-14",
					"fontname" : "Arial",
					"outlettype" : [ "" ],
					"fontsize" : 12.0,
					"numinlets" : 2
				}

			}
, 			{
				"box" : 				{
					"maxclass" : "newobj",
					"text" : "Lmatch 1 2 3 4 5",
					"patching_rect" : [ 219.0, 163.0, 111.0, 20.0 ],
					"numoutlets" : 2,
					"id" : "obj-15",
					"fontname" : "Arial",
					"outlettype" : [ "int", "" ],
					"fontsize" : 12.0,
					"numinlets" : 2
				}

			}
, 			{
				"box" : 				{
					"maxclass" : "number",
					"patching_rect" : [ 219.0, 201.0, 35.0, 20.0 ],
					"numoutlets" : 2,
					"id" : "obj-16",
					"triscale" : 0.9,
					"fontname" : "Arial",
					"bgcolor" : [ 0.866667, 0.866667, 0.866667, 1.0 ],
					"htextcolor" : [ 0.870588, 0.870588, 0.870588, 1.0 ],
					"outlettype" : [ "int", "bang" ],
					"fontsize" : 12.0,
					"numinlets" : 1
				}

			}
, 			{
				"box" : 				{
					"maxclass" : "message",
					"patching_rect" : [ 294.0, 205.0, 94.0, 18.0 ],
					"numoutlets" : 1,
					"id" : "obj-18",
					"fontname" : "Arial",
					"outlettype" : [ "" ],
					"fontsize" : 12.0,
					"numinlets" : 2
				}

			}
, 			{
				"box" : 				{
					"maxclass" : "message",
					"text" : "1 2 3. 4 5 6 7 8",
					"patching_rect" : [ 333.0, 130.0, 111.0, 18.0 ],
					"numoutlets" : 1,
					"id" : "obj-19",
					"fontname" : "Arial",
					"outlettype" : [ "" ],
					"fontsize" : 12.0,
					"numinlets" : 2
				}

			}
, 			{
				"box" : 				{
					"maxclass" : "message",
					"text" : "4 x 3",
					"patching_rect" : [ 336.0, 155.0, 40.0, 18.0 ],
					"numoutlets" : 1,
					"id" : "obj-20",
					"fontname" : "Arial",
					"outlettype" : [ "" ],
					"fontsize" : 12.0,
					"numinlets" : 2
				}

			}
, 			{
				"box" : 				{
					"maxclass" : "message",
					"text" : "3. 4",
					"patching_rect" : [ 223.0, 67.0, 39.0, 18.0 ],
					"numoutlets" : 1,
					"id" : "obj-21",
					"fontname" : "Arial",
					"outlettype" : [ "" ],
					"fontsize" : 12.0,
					"numinlets" : 2
				}

			}
, 			{
				"box" : 				{
					"maxclass" : "message",
					"text" : "8 1",
					"patching_rect" : [ 264.0, 67.0, 28.0, 18.0 ],
					"numoutlets" : 1,
					"id" : "obj-22",
					"fontname" : "Arial",
					"outlettype" : [ "" ],
					"fontsize" : 12.0,
					"numinlets" : 2
				}

			}
, 			{
				"box" : 				{
					"maxclass" : "message",
					"text" : "2 3",
					"patching_rect" : [ 177.0, 67.0, 28.0, 18.0 ],
					"numoutlets" : 1,
					"id" : "obj-23",
					"fontname" : "Arial",
					"outlettype" : [ "" ],
					"fontsize" : 12.0,
					"numinlets" : 2
				}

			}
, 			{
				"box" : 				{
					"maxclass" : "message",
					"text" : "2 x 4",
					"patching_rect" : [ 298.0, 68.0, 40.0, 18.0 ],
					"numoutlets" : 1,
					"id" : "obj-24",
					"fontname" : "Arial",
					"outlettype" : [ "" ],
					"fontsize" : 12.0,
					"numinlets" : 2
				}

			}
, 			{
				"box" : 				{
					"maxclass" : "number",
					"patching_rect" : [ 142.0, 112.0, 37.0, 20.0 ],
					"numoutlets" : 2,
					"id" : "obj-25",
					"triscale" : 0.9,
					"fontname" : "Arial",
					"bgcolor" : [ 0.866667, 0.866667, 0.866667, 1.0 ],
					"htextcolor" : [ 0.870588, 0.870588, 0.870588, 1.0 ],
					"outlettype" : [ "int", "bang" ],
					"fontsize" : 12.0,
					"numinlets" : 1
				}

			}
, 			{
				"box" : 				{
					"maxclass" : "flonum",
					"patching_rect" : [ 142.0, 134.0, 40.0, 20.0 ],
					"numoutlets" : 2,
					"id" : "obj-26",
					"triscale" : 0.9,
					"fontname" : "Arial",
					"bgcolor" : [ 0.866667, 0.866667, 0.866667, 1.0 ],
					"htextcolor" : [ 0.870588, 0.870588, 0.870588, 1.0 ],
					"outlettype" : [ "float", "bang" ],
					"fontsize" : 12.0,
					"numinlets" : 1
				}

			}
, 			{
				"box" : 				{
					"maxclass" : "comment",
					"text" : "Ints and floats are found too.",
					"linecount" : 2,
					"patching_rect" : [ 18.0, 114.0, 95.0, 34.0 ],
					"numoutlets" : 0,
					"id" : "obj-27",
					"fontname" : "Arial",
					"fontsize" : 12.0,
					"numinlets" : 1
				}

			}
, 			{
				"box" : 				{
					"maxclass" : "comment",
					"text" : "Symbol in list is a wild card, will match anything.",
					"linecount" : 3,
					"patching_rect" : [ 395.0, 152.0, 98.0, 48.0 ],
					"numoutlets" : 0,
					"id" : "obj-28",
					"fontname" : "Arial",
					"fontsize" : 12.0,
					"numinlets" : 1
				}

			}
, 			{
				"box" : 				{
					"maxclass" : "comment",
					"text" : "Lmatch",
					"patching_rect" : [ 13.0, 1.0, 118.0, 34.0 ],
					"numoutlets" : 0,
					"id" : "obj-29",
					"fontname" : "Arial",
					"fontsize" : 24.0,
					"numinlets" : 1
				}

			}
, 			{
				"box" : 				{
					"maxclass" : "comment",
					"text" : "Search stored list for input list and report location of first member.",
					"linecount" : 2,
					"patching_rect" : [ 131.0, 21.0, 256.0, 39.0 ],
					"numoutlets" : 0,
					"id" : "obj-30",
					"fontname" : "Arial",
					"fontsize" : 14.0,
					"numinlets" : 1
				}

			}
, 			{
				"box" : 				{
					"maxclass" : "comment",
					"text" : "University of California, Santa Cruz",
					"patching_rect" : [ 280.0, 330.0, 224.0, 20.0 ],
					"numoutlets" : 0,
					"id" : "obj-31",
					"fontname" : "Arial",
					"fontsize" : 12.0,
					"numinlets" : 1
				}

			}
 ],
		"lines" : [ 			{
				"patchline" : 				{
					"source" : [ "obj-24", 0 ],
					"destination" : [ "obj-15", 0 ],
					"hidden" : 0,
					"midpoints" : [ 307.5, 110.0, 228.5, 110.0 ]
				}

			}
, 			{
				"patchline" : 				{
					"source" : [ "obj-23", 0 ],
					"destination" : [ "obj-15", 0 ],
					"hidden" : 0,
					"midpoints" : [ 186.5, 110.0, 228.5, 110.0 ]
				}

			}
, 			{
				"patchline" : 				{
					"source" : [ "obj-22", 0 ],
					"destination" : [ "obj-15", 0 ],
					"hidden" : 0,
					"midpoints" : [ 273.5, 110.0, 228.5, 110.0 ]
				}

			}
, 			{
				"patchline" : 				{
					"source" : [ "obj-21", 0 ],
					"destination" : [ "obj-15", 0 ],
					"hidden" : 0,
					"midpoints" : [ 232.5, 110.0, 228.5, 110.0 ]
				}

			}
, 			{
				"patchline" : 				{
					"source" : [ "obj-14", 0 ],
					"destination" : [ "obj-15", 0 ],
					"hidden" : 0,
					"midpoints" : [ 250.5, 110.0, 228.5, 110.0 ]
				}

			}
, 			{
				"patchline" : 				{
					"source" : [ "obj-11", 0 ],
					"destination" : [ "obj-15", 0 ],
					"hidden" : 0,
					"midpoints" : [ 200.5, 110.0, 228.5, 110.0 ]
				}

			}
, 			{
				"patchline" : 				{
					"source" : [ "obj-25", 0 ],
					"destination" : [ "obj-15", 0 ],
					"hidden" : 0,
					"midpoints" : [ 151.5, 131.0, 228.5, 131.0 ]
				}

			}
, 			{
				"patchline" : 				{
					"source" : [ "obj-10", 0 ],
					"destination" : [ "obj-15", 0 ],
					"hidden" : 0,
					"midpoints" : [ 288.5, 110.0, 228.5, 110.0 ]
				}

			}
, 			{
				"patchline" : 				{
					"source" : [ "obj-26", 0 ],
					"destination" : [ "obj-15", 0 ],
					"hidden" : 0,
					"midpoints" : [ 151.5, 156.0, 228.5, 156.0 ]
				}

			}
, 			{
				"patchline" : 				{
					"source" : [ "obj-7", 0 ],
					"destination" : [ "obj-15", 0 ],
					"hidden" : 0,
					"midpoints" : [ 320.5, 110.0, 228.5, 110.0 ]
				}

			}
, 			{
				"patchline" : 				{
					"source" : [ "obj-6", 0 ],
					"destination" : [ "obj-15", 0 ],
					"hidden" : 0,
					"midpoints" : [ 163.5, 110.0, 228.5, 110.0 ]
				}

			}
, 			{
				"patchline" : 				{
					"source" : [ "obj-5", 0 ],
					"destination" : [ "obj-15", 0 ],
					"hidden" : 0,
					"midpoints" : [ 154.5, 186.0, 205.0, 186.0, 205.0, 156.0, 228.5, 156.0 ]
				}

			}
, 			{
				"patchline" : 				{
					"source" : [ "obj-4", 0 ],
					"destination" : [ "obj-15", 0 ],
					"hidden" : 0,
					"midpoints" : [ 154.5, 211.0, 205.0, 211.0, 205.0, 156.0, 228.5, 156.0 ]
				}

			}
, 			{
				"patchline" : 				{
					"source" : [ "obj-15", 0 ],
					"destination" : [ "obj-16", 0 ],
					"hidden" : 0,
					"midpoints" : [  ]
				}

			}
, 			{
				"patchline" : 				{
					"source" : [ "obj-20", 0 ],
					"destination" : [ "obj-15", 1 ],
					"hidden" : 0,
					"midpoints" : [ 345.5, 180.0, 332.0, 180.0, 332.0, 158.0, 320.5, 158.0 ]
				}

			}
, 			{
				"patchline" : 				{
					"source" : [ "obj-19", 0 ],
					"destination" : [ "obj-15", 1 ],
					"hidden" : 0,
					"midpoints" : [ 342.5, 151.0, 320.5, 151.0 ]
				}

			}
, 			{
				"patchline" : 				{
					"source" : [ "obj-9", 0 ],
					"destination" : [ "obj-15", 1 ],
					"hidden" : 0,
					"midpoints" : [ 344.5, 127.0, 320.5, 127.0 ]
				}

			}
, 			{
				"patchline" : 				{
					"source" : [ "obj-15", 1 ],
					"destination" : [ "obj-18", 1 ],
					"hidden" : 0,
					"midpoints" : [ 320.5, 199.0, 378.5, 199.0 ]
				}

			}
 ]
	}

}
