{
	"patcher" : 	{
		"fileversion" : 1,
		"rect" : [ 40.0, 55.0, 654.0, 438.0 ],
		"bglocked" : 0,
		"defrect" : [ 40.0, 55.0, 654.0, 438.0 ],
		"openrect" : [ 0.0, 0.0, 0.0, 0.0 ],
		"openinpresentation" : 0,
		"default_fontsize" : 12.0,
		"default_fontface" : 0,
		"default_fontname" : "Arial",
		"gridonopen" : 0,
		"gridsize" : [ 15.0, 15.0 ],
		"gridsnaponopen" : 0,
		"toolbarvisible" : 1,
		"boxanimatetime" : 200,
		"imprint" : 0,
		"metadata" : [  ],
		"boxes" : [ 			{
				"box" : 				{
					"maxclass" : "message",
					"text" : "reset",
					"id" : "obj-1",
					"fontname" : "Arial",
					"numinlets" : 2,
					"patching_rect" : [ 22.0, 150.0, 40.0, 18.0 ],
					"fontsize" : 12.0,
					"numoutlets" : 1,
					"outlettype" : [ "" ]
				}

			}
, 			{
				"box" : 				{
					"maxclass" : "number",
					"triscale" : 0.9,
					"id" : "obj-2",
					"fontname" : "Arial",
					"bgcolor" : [ 0.866667, 0.866667, 0.866667, 1.0 ],
					"numinlets" : 1,
					"patching_rect" : [ 231.0, 135.0, 38.0, 20.0 ],
					"fontsize" : 12.0,
					"numoutlets" : 2,
					"htextcolor" : [ 0.870588, 0.870588, 0.870588, 1.0 ],
					"outlettype" : [ "int", "bang" ]
				}

			}
, 			{
				"box" : 				{
					"maxclass" : "message",
					"text" : "1 2 1",
					"id" : "obj-3",
					"fontname" : "Arial",
					"numinlets" : 2,
					"patching_rect" : [ 471.0, 136.0, 40.0, 18.0 ],
					"fontsize" : 12.0,
					"numoutlets" : 1,
					"outlettype" : [ "" ]
				}

			}
, 			{
				"box" : 				{
					"maxclass" : "message",
					"text" : "1 0 1",
					"id" : "obj-4",
					"fontname" : "Arial",
					"numinlets" : 2,
					"patching_rect" : [ 425.0, 136.0, 40.0, 18.0 ],
					"fontsize" : 12.0,
					"numoutlets" : 1,
					"outlettype" : [ "" ]
				}

			}
, 			{
				"box" : 				{
					"maxclass" : "number",
					"triscale" : 0.9,
					"id" : "obj-5",
					"fontname" : "Arial",
					"bgcolor" : [ 0.866667, 0.866667, 0.866667, 1.0 ],
					"numinlets" : 1,
					"patching_rect" : [ 376.0, 136.0, 38.0, 20.0 ],
					"fontsize" : 12.0,
					"numoutlets" : 2,
					"htextcolor" : [ 0.870588, 0.870588, 0.870588, 1.0 ],
					"outlettype" : [ "int", "bang" ]
				}

			}
, 			{
				"box" : 				{
					"maxclass" : "button",
					"id" : "obj-6",
					"numinlets" : 1,
					"patching_rect" : [ 376.0, 213.0, 15.0, 15.0 ],
					"numoutlets" : 1,
					"outlettype" : [ "bang" ]
				}

			}
, 			{
				"box" : 				{
					"maxclass" : "newobj",
					"text" : "Lpast",
					"id" : "obj-7",
					"fontname" : "Arial",
					"numinlets" : 3,
					"patching_rect" : [ 376.0, 188.0, 51.0, 20.0 ],
					"fontsize" : 12.0,
					"numoutlets" : 1,
					"outlettype" : [ "" ]
				}

			}
, 			{
				"box" : 				{
					"maxclass" : "flonum",
					"triscale" : 0.9,
					"id" : "obj-8",
					"fontname" : "Arial",
					"bgcolor" : [ 0.866667, 0.866667, 0.866667, 1.0 ],
					"numinlets" : 1,
					"patching_rect" : [ 298.0, 159.0, 41.0, 20.0 ],
					"fontsize" : 12.0,
					"numoutlets" : 2,
					"htextcolor" : [ 0.870588, 0.870588, 0.870588, 1.0 ],
					"outlettype" : [ "float", "bang" ]
				}

			}
, 			{
				"box" : 				{
					"maxclass" : "flonum",
					"triscale" : 0.9,
					"id" : "obj-9",
					"fontname" : "Arial",
					"bgcolor" : [ 0.866667, 0.866667, 0.866667, 1.0 ],
					"numinlets" : 1,
					"patching_rect" : [ 245.0, 159.0, 41.0, 20.0 ],
					"fontsize" : 12.0,
					"numoutlets" : 2,
					"htextcolor" : [ 0.870588, 0.870588, 0.870588, 1.0 ],
					"outlettype" : [ "float", "bang" ]
				}

			}
, 			{
				"box" : 				{
					"maxclass" : "flonum",
					"triscale" : 0.9,
					"id" : "obj-10",
					"fontname" : "Arial",
					"bgcolor" : [ 0.866667, 0.866667, 0.866667, 1.0 ],
					"numinlets" : 1,
					"patching_rect" : [ 185.0, 135.0, 41.0, 20.0 ],
					"fontsize" : 12.0,
					"numoutlets" : 2,
					"htextcolor" : [ 0.870588, 0.870588, 0.870588, 1.0 ],
					"outlettype" : [ "float", "bang" ]
				}

			}
, 			{
				"box" : 				{
					"maxclass" : "button",
					"id" : "obj-11",
					"numinlets" : 1,
					"patching_rect" : [ 210.0, 213.0, 15.0, 15.0 ],
					"numoutlets" : 1,
					"outlettype" : [ "bang" ]
				}

			}
, 			{
				"box" : 				{
					"maxclass" : "newobj",
					"text" : "Lpast 1. 0.95",
					"id" : "obj-12",
					"fontname" : "Arial",
					"numinlets" : 3,
					"patching_rect" : [ 210.0, 188.0, 89.0, 20.0 ],
					"fontsize" : 12.0,
					"numoutlets" : 1,
					"outlettype" : [ "" ]
				}

			}
, 			{
				"box" : 				{
					"maxclass" : "number",
					"triscale" : 0.9,
					"id" : "obj-13",
					"fontname" : "Arial",
					"bgcolor" : [ 0.866667, 0.866667, 0.866667, 1.0 ],
					"numinlets" : 1,
					"patching_rect" : [ 145.0, 158.0, 38.0, 20.0 ],
					"fontsize" : 12.0,
					"numoutlets" : 2,
					"htextcolor" : [ 0.870588, 0.870588, 0.870588, 1.0 ],
					"outlettype" : [ "int", "bang" ]
				}

			}
, 			{
				"box" : 				{
					"maxclass" : "number",
					"triscale" : 0.9,
					"id" : "obj-14",
					"fontname" : "Arial",
					"bgcolor" : [ 0.866667, 0.866667, 0.866667, 1.0 ],
					"numinlets" : 1,
					"patching_rect" : [ 101.0, 158.0, 38.0, 20.0 ],
					"fontsize" : 12.0,
					"numoutlets" : 2,
					"htextcolor" : [ 0.870588, 0.870588, 0.870588, 1.0 ],
					"outlettype" : [ "int", "bang" ]
				}

			}
, 			{
				"box" : 				{
					"maxclass" : "number",
					"triscale" : 0.9,
					"id" : "obj-15",
					"fontname" : "Arial",
					"bgcolor" : [ 0.866667, 0.866667, 0.866667, 1.0 ],
					"numinlets" : 1,
					"patching_rect" : [ 78.0, 135.0, 38.0, 20.0 ],
					"fontsize" : 12.0,
					"numoutlets" : 2,
					"htextcolor" : [ 0.870588, 0.870588, 0.870588, 1.0 ],
					"outlettype" : [ "int", "bang" ]
				}

			}
, 			{
				"box" : 				{
					"maxclass" : "button",
					"id" : "obj-16",
					"numinlets" : 1,
					"patching_rect" : [ 78.0, 213.0, 15.0, 15.0 ],
					"numoutlets" : 1,
					"outlettype" : [ "bang" ]
				}

			}
, 			{
				"box" : 				{
					"maxclass" : "newobj",
					"text" : "Lpast 3 2",
					"id" : "obj-17",
					"fontname" : "Arial",
					"numinlets" : 3,
					"patching_rect" : [ 78.0, 188.0, 65.0, 20.0 ],
					"fontsize" : 12.0,
					"numoutlets" : 1,
					"outlettype" : [ "" ]
				}

			}
, 			{
				"box" : 				{
					"maxclass" : "comment",
					"text" : "Lpast",
					"id" : "obj-18",
					"fontname" : "Arial",
					"numinlets" : 1,
					"patching_rect" : [ 20.0, 13.0, 101.0, 34.0 ],
					"fontsize" : 24.0,
					"numoutlets" : 0
				}

			}
, 			{
				"box" : 				{
					"maxclass" : "comment",
					"text" : "Threshold detector",
					"id" : "obj-19",
					"fontname" : "Arial",
					"numinlets" : 1,
					"patching_rect" : [ 121.0, 22.0, 151.0, 23.0 ],
					"fontsize" : 14.0,
					"numoutlets" : 0
				}

			}
, 			{
				"box" : 				{
					"maxclass" : "comment",
					"text" : "Lpast bangs when it receives a number equal or higher than a target value. It will not bang again until input lower than a reset value has been received.",
					"linecount" : 2,
					"id" : "obj-20",
					"fontname" : "Arial",
					"numinlets" : 1,
					"patching_rect" : [ 20.0, 53.0, 596.0, 34.0 ],
					"fontsize" : 12.0,
					"numoutlets" : 0
				}

			}
, 			{
				"box" : 				{
					"maxclass" : "comment",
					"text" : "If the reset value is higher than the target, the sense is reversed: bangs happen with data below the target if a value higher than the reset has been received.",
					"linecount" : 2,
					"id" : "obj-21",
					"fontname" : "Arial",
					"numinlets" : 1,
					"patching_rect" : [ 20.0, 88.0, 605.0, 34.0 ],
					"fontsize" : 12.0,
					"numoutlets" : 0
				}

			}
, 			{
				"box" : 				{
					"maxclass" : "comment",
					"text" : "inlets are: value to test, target, reset",
					"id" : "obj-22",
					"fontname" : "Arial",
					"numinlets" : 1,
					"patching_rect" : [ 19.0, 252.0, 239.0, 20.0 ],
					"fontsize" : 12.0,
					"numoutlets" : 0
				}

			}
, 			{
				"box" : 				{
					"maxclass" : "comment",
					"text" : "arguments are target, reset.",
					"id" : "obj-23",
					"fontname" : "Arial",
					"numinlets" : 1,
					"patching_rect" : [ 19.0, 273.0, 182.0, 20.0 ],
					"fontsize" : 12.0,
					"numoutlets" : 0
				}

			}
, 			{
				"box" : 				{
					"maxclass" : "comment",
					"text" : "If first arguments is float, all tests are done in floats.",
					"linecount" : 4,
					"id" : "obj-24",
					"fontname" : "Arial",
					"numinlets" : 1,
					"patching_rect" : [ 267.0, 250.0, 103.0, 62.0 ],
					"fontsize" : 12.0,
					"numoutlets" : 0
				}

			}
, 			{
				"box" : 				{
					"maxclass" : "comment",
					"text" : "If the target and reset are the same, the bang will occur when the data stream crosses the target in either direction. (Data must be higher or lower than the target for bang to occur.)",
					"linecount" : 4,
					"id" : "obj-25",
					"fontname" : "Arial",
					"numinlets" : 1,
					"patching_rect" : [ 380.0, 246.0, 260.0, 62.0 ],
					"fontsize" : 12.0,
					"numoutlets" : 0
				}

			}
, 			{
				"box" : 				{
					"maxclass" : "comment",
					"text" : "No args sets target and reset to 0",
					"id" : "obj-26",
					"fontname" : "Arial",
					"numinlets" : 1,
					"patching_rect" : [ 380.0, 327.0, 214.0, 20.0 ],
					"fontsize" : 12.0,
					"numoutlets" : 0
				}

			}
, 			{
				"box" : 				{
					"maxclass" : "comment",
					"text" : "One arg sets both target and reset.",
					"id" : "obj-27",
					"fontname" : "Arial",
					"numinlets" : 1,
					"patching_rect" : [ 380.0, 349.0, 218.0, 20.0 ],
					"fontsize" : 12.0,
					"numoutlets" : 0
				}

			}
, 			{
				"box" : 				{
					"maxclass" : "comment",
					"text" : "Lists are treated as a stream of numbers.",
					"linecount" : 2,
					"id" : "obj-28",
					"fontname" : "Arial",
					"numinlets" : 1,
					"patching_rect" : [ 429.0, 180.0, 132.0, 34.0 ],
					"fontsize" : 12.0,
					"numoutlets" : 0
				}

			}
, 			{
				"box" : 				{
					"maxclass" : "comment",
					"text" : "If first argument is int, floats are truncated before test.",
					"linecount" : 3,
					"id" : "obj-29",
					"fontname" : "Arial",
					"numinlets" : 1,
					"patching_rect" : [ 250.0, 320.0, 122.0, 48.0 ],
					"fontsize" : 12.0,
					"numoutlets" : 0
				}

			}
, 			{
				"box" : 				{
					"maxclass" : "comment",
					"text" : "Peter Elsea 2002",
					"id" : "obj-30",
					"fontname" : "Arial",
					"numinlets" : 1,
					"patching_rect" : [ 21.0, 374.0, 131.0, 20.0 ],
					"fontsize" : 12.0,
					"numoutlets" : 0
				}

			}
, 			{
				"box" : 				{
					"maxclass" : "comment",
					"text" : "University of California, Santa Cruz",
					"linecount" : 2,
					"id" : "obj-31",
					"fontname" : "Arial",
					"numinlets" : 1,
					"patching_rect" : [ 21.0, 395.0, 142.0, 34.0 ],
					"fontsize" : 12.0,
					"numoutlets" : 0
				}

			}
, 			{
				"box" : 				{
					"maxclass" : "comment",
					"text" : "the reset message is the same as receiving a value in the reset range",
					"linecount" : 2,
					"id" : "obj-32",
					"fontname" : "Arial",
					"numinlets" : 1,
					"patching_rect" : [ 19.0, 294.0, 212.0, 34.0 ],
					"fontsize" : 12.0,
					"numoutlets" : 0
				}

			}
 ],
		"lines" : [ 			{
				"patchline" : 				{
					"source" : [ "obj-9", 0 ],
					"destination" : [ "obj-12", 1 ],
					"hidden" : 0,
					"midpoints" : [  ]
				}

			}
, 			{
				"patchline" : 				{
					"source" : [ "obj-8", 0 ],
					"destination" : [ "obj-12", 2 ],
					"hidden" : 0,
					"midpoints" : [ 307.5, 182.0, 289.5, 182.0 ]
				}

			}
, 			{
				"patchline" : 				{
					"source" : [ "obj-13", 0 ],
					"destination" : [ "obj-17", 2 ],
					"hidden" : 0,
					"midpoints" : [ 154.5, 185.0, 133.5, 185.0 ]
				}

			}
, 			{
				"patchline" : 				{
					"source" : [ "obj-7", 0 ],
					"destination" : [ "obj-6", 0 ],
					"hidden" : 0,
					"midpoints" : [  ]
				}

			}
, 			{
				"patchline" : 				{
					"source" : [ "obj-4", 0 ],
					"destination" : [ "obj-7", 0 ],
					"hidden" : 0,
					"midpoints" : [ 434.5, 162.0, 411.0, 162.0, 411.0, 174.0, 385.5, 174.0 ]
				}

			}
, 			{
				"patchline" : 				{
					"source" : [ "obj-5", 0 ],
					"destination" : [ "obj-7", 0 ],
					"hidden" : 0,
					"midpoints" : [  ]
				}

			}
, 			{
				"patchline" : 				{
					"source" : [ "obj-3", 0 ],
					"destination" : [ "obj-7", 0 ],
					"hidden" : 0,
					"midpoints" : [ 480.5, 162.0, 411.0, 162.0, 411.0, 174.0, 385.5, 174.0 ]
				}

			}
, 			{
				"patchline" : 				{
					"source" : [ "obj-12", 0 ],
					"destination" : [ "obj-11", 0 ],
					"hidden" : 0,
					"midpoints" : [  ]
				}

			}
, 			{
				"patchline" : 				{
					"source" : [ "obj-10", 0 ],
					"destination" : [ "obj-12", 0 ],
					"hidden" : 0,
					"midpoints" : [ 194.5, 174.0, 219.5, 174.0 ]
				}

			}
, 			{
				"patchline" : 				{
					"source" : [ "obj-2", 0 ],
					"destination" : [ "obj-12", 0 ],
					"hidden" : 0,
					"midpoints" : [ 240.5, 156.0, 240.0, 156.0, 240.0, 174.0, 219.5, 174.0 ]
				}

			}
, 			{
				"patchline" : 				{
					"source" : [ "obj-14", 0 ],
					"destination" : [ "obj-17", 1 ],
					"hidden" : 0,
					"midpoints" : [  ]
				}

			}
, 			{
				"patchline" : 				{
					"source" : [ "obj-17", 0 ],
					"destination" : [ "obj-16", 0 ],
					"hidden" : 0,
					"midpoints" : [  ]
				}

			}
, 			{
				"patchline" : 				{
					"source" : [ "obj-15", 0 ],
					"destination" : [ "obj-17", 0 ],
					"hidden" : 0,
					"midpoints" : [  ]
				}

			}
, 			{
				"patchline" : 				{
					"source" : [ "obj-1", 0 ],
					"destination" : [ "obj-17", 0 ],
					"hidden" : 0,
					"midpoints" : [ 31.5, 174.0, 87.5, 174.0 ]
				}

			}
 ]
	}

}
