{
	"patcher" : 	{
		"fileversion" : 1,
		"rect" : [ 50.0, 44.0, 631.0, 435.0 ],
		"bglocked" : 0,
		"defrect" : [ 50.0, 44.0, 631.0, 435.0 ],
		"openrect" : [ 0.0, 0.0, 0.0, 0.0 ],
		"openinpresentation" : 0,
		"default_fontsize" : 12.0,
		"default_fontface" : 0,
		"default_fontname" : "Arial",
		"gridonopen" : 0,
		"gridsize" : [ 15.0, 15.0 ],
		"gridsnaponopen" : 0,
		"toolbarvisible" : 1,
		"boxanimatetime" : 200,
		"imprint" : 0,
		"metadata" : [  ],
		"boxes" : [ 			{
				"box" : 				{
					"maxclass" : "kslider",
					"patching_rect" : [ 267.0, 155.0, 196.0, 34.0 ],
					"numinlets" : 2,
					"id" : "obj-1",
					"numoutlets" : 2,
					"outlettype" : [ "int", "int" ],
					"presentation_rect" : [ 0.0, 0.0, 196.0, 35.0 ],
					"hkeycolor" : [ 0.501961, 0.501961, 0.501961, 1.0 ]
				}

			}
, 			{
				"box" : 				{
					"maxclass" : "message",
					"text" : "clear",
					"fontsize" : 12.0,
					"patching_rect" : [ 557.0, 288.0, 38.0, 18.0 ],
					"numinlets" : 2,
					"id" : "obj-2",
					"numoutlets" : 1,
					"fontname" : "Arial",
					"outlettype" : [ "" ]
				}

			}
, 			{
				"box" : 				{
					"maxclass" : "button",
					"patching_rect" : [ 360.0, 288.0, 15.0, 15.0 ],
					"numinlets" : 1,
					"id" : "obj-3",
					"numoutlets" : 1,
					"outlettype" : [ "bang" ]
				}

			}
, 			{
				"box" : 				{
					"maxclass" : "newobj",
					"text" : "p example",
					"fontsize" : 12.0,
					"patching_rect" : [ 29.0, 272.0, 64.0, 20.0 ],
					"numinlets" : 0,
					"id" : "obj-4",
					"numoutlets" : 0,
					"fontname" : "Arial",
					"patcher" : 					{
						"fileversion" : 1,
						"rect" : [ 215.0, 254.0, 399.0, 386.0 ],
						"bglocked" : 0,
						"defrect" : [ 215.0, 254.0, 399.0, 386.0 ],
						"openrect" : [ 0.0, 0.0, 0.0, 0.0 ],
						"openinpresentation" : 0,
						"default_fontsize" : 12.0,
						"default_fontface" : 0,
						"default_fontname" : "Arial",
						"gridonopen" : 0,
						"gridsize" : [ 15.0, 15.0 ],
						"gridsnaponopen" : 0,
						"toolbarvisible" : 1,
						"boxanimatetime" : 200,
						"imprint" : 0,
						"metadata" : [  ],
						"boxes" : [ 							{
								"box" : 								{
									"maxclass" : "message",
									"text" : "clear",
									"fontsize" : 12.0,
									"patching_rect" : [ 163.0, 267.0, 38.0, 18.0 ],
									"numinlets" : 2,
									"id" : "obj-1",
									"numoutlets" : 1,
									"fontname" : "Arial",
									"outlettype" : [ "" ]
								}

							}
, 							{
								"box" : 								{
									"maxclass" : "toggle",
									"patching_rect" : [ 72.0, 56.0, 15.0, 15.0 ],
									"numinlets" : 1,
									"id" : "obj-2",
									"numoutlets" : 1,
									"outlettype" : [ "int" ]
								}

							}
, 							{
								"box" : 								{
									"maxclass" : "newobj",
									"text" : "gate",
									"fontsize" : 12.0,
									"patching_rect" : [ 72.0, 102.0, 37.0, 20.0 ],
									"numinlets" : 2,
									"id" : "obj-3",
									"numoutlets" : 1,
									"fontname" : "Arial",
									"outlettype" : [ "" ]
								}

							}
, 							{
								"box" : 								{
									"maxclass" : "newobj",
									"text" : "Lreg",
									"fontsize" : 12.0,
									"patching_rect" : [ 149.0, 232.0, 33.0, 20.0 ],
									"numinlets" : 2,
									"id" : "obj-4",
									"numoutlets" : 2,
									"fontname" : "Arial",
									"outlettype" : [ "", "" ]
								}

							}
, 							{
								"box" : 								{
									"maxclass" : "newobj",
									"text" : "noteout",
									"linecount" : 2,
									"fontsize" : 12.0,
									"patching_rect" : [ 72.0, 235.0, 34.0, 34.0 ],
									"numinlets" : 3,
									"id" : "obj-5",
									"numoutlets" : 0,
									"fontname" : "Arial"
								}

							}
, 							{
								"box" : 								{
									"maxclass" : "newobj",
									"text" : "makenote 90 1000",
									"fontsize" : 12.0,
									"patching_rect" : [ 72.0, 176.0, 110.0, 20.0 ],
									"numinlets" : 3,
									"id" : "obj-6",
									"numoutlets" : 2,
									"fontname" : "Arial",
									"outlettype" : [ "int", "int" ]
								}

							}
, 							{
								"box" : 								{
									"maxclass" : "newobj",
									"text" : "lfilt",
									"fontsize" : 12.0,
									"patching_rect" : [ 72.0, 143.0, 30.0, 20.0 ],
									"numinlets" : 2,
									"id" : "obj-7",
									"numoutlets" : 2,
									"fontname" : "Arial",
									"outlettype" : [ "", "" ]
								}

							}
, 							{
								"box" : 								{
									"maxclass" : "newobj",
									"text" : "stripnote",
									"fontsize" : 12.0,
									"patching_rect" : [ 90.0, 67.0, 57.0, 20.0 ],
									"numinlets" : 2,
									"id" : "obj-8",
									"numoutlets" : 2,
									"fontname" : "Arial",
									"outlettype" : [ "int", "int" ]
								}

							}
, 							{
								"box" : 								{
									"maxclass" : "newobj",
									"text" : "notein",
									"fontsize" : 12.0,
									"patching_rect" : [ 102.0, 27.0, 46.0, 20.0 ],
									"numinlets" : 1,
									"id" : "obj-9",
									"numoutlets" : 3,
									"fontname" : "Arial",
									"outlettype" : [ "int", "int", "int" ]
								}

							}
, 							{
								"box" : 								{
									"maxclass" : "comment",
									"text" : "Here we want to eliminate repeated notes for any pitch that is currently playing. Lfilt does this, under instructions from Lreg.",
									"linecount" : 8,
									"fontsize" : 12.0,
									"patching_rect" : [ 217.0, 68.0, 117.0, 117.0 ],
									"numinlets" : 1,
									"id" : "obj-10",
									"numoutlets" : 0,
									"fontname" : "Arial"
								}

							}
 ],
						"lines" : [ 							{
								"patchline" : 								{
									"source" : [ "obj-2", 0 ],
									"destination" : [ "obj-3", 0 ],
									"hidden" : 0,
									"midpoints" : [  ]
								}

							}
, 							{
								"patchline" : 								{
									"source" : [ "obj-9", 0 ],
									"destination" : [ "obj-8", 0 ],
									"hidden" : 0,
									"midpoints" : [  ]
								}

							}
, 							{
								"patchline" : 								{
									"source" : [ "obj-8", 0 ],
									"destination" : [ "obj-3", 1 ],
									"hidden" : 0,
									"midpoints" : [  ]
								}

							}
, 							{
								"patchline" : 								{
									"source" : [ "obj-3", 0 ],
									"destination" : [ "obj-7", 0 ],
									"hidden" : 0,
									"midpoints" : [  ]
								}

							}
, 							{
								"patchline" : 								{
									"source" : [ "obj-7", 0 ],
									"destination" : [ "obj-6", 0 ],
									"hidden" : 0,
									"midpoints" : [  ]
								}

							}
, 							{
								"patchline" : 								{
									"source" : [ "obj-6", 0 ],
									"destination" : [ "obj-5", 0 ],
									"hidden" : 0,
									"midpoints" : [  ]
								}

							}
, 							{
								"patchline" : 								{
									"source" : [ "obj-6", 1 ],
									"destination" : [ "obj-5", 1 ],
									"hidden" : 0,
									"midpoints" : [  ]
								}

							}
, 							{
								"patchline" : 								{
									"source" : [ "obj-1", 0 ],
									"destination" : [ "obj-7", 1 ],
									"hidden" : 0,
									"midpoints" : [ 172.5, 289.0, 201.0, 289.0, 201.0, 136.0, 92.5, 136.0 ]
								}

							}
, 							{
								"patchline" : 								{
									"source" : [ "obj-4", 0 ],
									"destination" : [ "obj-7", 1 ],
									"hidden" : 0,
									"midpoints" : [ 158.5, 300.0, 209.0, 300.0, 209.0, 136.0, 92.5, 136.0 ]
								}

							}
, 							{
								"patchline" : 								{
									"source" : [ "obj-9", 1 ],
									"destination" : [ "obj-8", 1 ],
									"hidden" : 0,
									"midpoints" : [  ]
								}

							}
, 							{
								"patchline" : 								{
									"source" : [ "obj-6", 0 ],
									"destination" : [ "obj-4", 0 ],
									"hidden" : 0,
									"midpoints" : [  ]
								}

							}
, 							{
								"patchline" : 								{
									"source" : [ "obj-6", 1 ],
									"destination" : [ "obj-4", 1 ],
									"hidden" : 0,
									"midpoints" : [  ]
								}

							}
, 							{
								"patchline" : 								{
									"source" : [ "obj-4", 1 ],
									"destination" : [ "obj-1", 0 ],
									"hidden" : 0,
									"midpoints" : [  ]
								}

							}
 ]
					}
,
					"saved_object_attributes" : 					{
						"fontface" : 0,
						"fontsize" : 12.0,
						"default_fontface" : 0,
						"default_fontname" : "Arial",
						"globalpatchername" : "",
						"fontname" : "Arial",
						"default_fontsize" : 12.0
					}

				}

			}
, 			{
				"box" : 				{
					"maxclass" : "message",
					"text" : "3",
					"fontsize" : 12.0,
					"patching_rect" : [ 502.0, 288.0, 18.0, 18.0 ],
					"numinlets" : 2,
					"id" : "obj-5",
					"numoutlets" : 1,
					"fontname" : "Arial",
					"outlettype" : [ "" ]
				}

			}
, 			{
				"box" : 				{
					"maxclass" : "message",
					"text" : "2",
					"fontsize" : 12.0,
					"patching_rect" : [ 480.0, 288.0, 18.0, 18.0 ],
					"numinlets" : 2,
					"id" : "obj-6",
					"numoutlets" : 1,
					"fontname" : "Arial",
					"outlettype" : [ "" ]
				}

			}
, 			{
				"box" : 				{
					"maxclass" : "message",
					"text" : "1",
					"fontsize" : 12.0,
					"patching_rect" : [ 444.0, 288.0, 18.0, 18.0 ],
					"numinlets" : 2,
					"id" : "obj-7",
					"numoutlets" : 1,
					"fontname" : "Arial",
					"outlettype" : [ "" ]
				}

			}
, 			{
				"box" : 				{
					"maxclass" : "message",
					"text" : "1 2 3 1 2 3",
					"fontsize" : 12.0,
					"patching_rect" : [ 378.0, 288.0, 65.0, 18.0 ],
					"numinlets" : 2,
					"id" : "obj-8",
					"numoutlets" : 1,
					"fontname" : "Arial",
					"outlettype" : [ "" ]
				}

			}
, 			{
				"box" : 				{
					"maxclass" : "toggle",
					"patching_rect" : [ 536.0, 288.0, 15.0, 15.0 ],
					"numinlets" : 1,
					"id" : "obj-9",
					"numoutlets" : 1,
					"outlettype" : [ "int" ]
				}

			}
, 			{
				"box" : 				{
					"maxclass" : "newobj",
					"text" : "Lreg 1",
					"fontsize" : 12.0,
					"patching_rect" : [ 444.0, 322.0, 46.0, 20.0 ],
					"numinlets" : 2,
					"id" : "obj-10",
					"numoutlets" : 2,
					"fontname" : "Arial",
					"outlettype" : [ "", "" ]
				}

			}
, 			{
				"box" : 				{
					"maxclass" : "message",
					"fontsize" : 12.0,
					"patching_rect" : [ 393.0, 388.0, 116.0, 18.0 ],
					"numinlets" : 2,
					"id" : "obj-12",
					"numoutlets" : 1,
					"fontname" : "Arial",
					"outlettype" : [ "" ]
				}

			}
, 			{
				"box" : 				{
					"maxclass" : "message",
					"text" : "set",
					"fontsize" : 12.0,
					"patching_rect" : [ 460.0, 357.0, 25.0, 18.0 ],
					"numinlets" : 2,
					"id" : "obj-13",
					"numoutlets" : 1,
					"fontname" : "Arial",
					"outlettype" : [ "" ]
				}

			}
, 			{
				"box" : 				{
					"maxclass" : "button",
					"patching_rect" : [ 498.0, 357.0, 15.0, 15.0 ],
					"numinlets" : 1,
					"id" : "obj-14",
					"numoutlets" : 1,
					"outlettype" : [ "bang" ]
				}

			}
, 			{
				"box" : 				{
					"maxclass" : "button",
					"patching_rect" : [ 346.0, 278.0, 15.0, 15.0 ],
					"numinlets" : 1,
					"id" : "obj-15",
					"numoutlets" : 1,
					"outlettype" : [ "bang" ]
				}

			}
, 			{
				"box" : 				{
					"maxclass" : "newobj",
					"text" : "makenote 100 500",
					"fontsize" : 12.0,
					"patching_rect" : [ 221.0, 200.0, 110.0, 20.0 ],
					"numinlets" : 3,
					"id" : "obj-16",
					"numoutlets" : 2,
					"fontname" : "Arial",
					"outlettype" : [ "int", "int" ]
				}

			}
, 			{
				"box" : 				{
					"maxclass" : "message",
					"text" : "set",
					"fontsize" : 12.0,
					"patching_rect" : [ 312.0, 286.0, 25.0, 18.0 ],
					"numinlets" : 2,
					"id" : "obj-17",
					"numoutlets" : 1,
					"fontname" : "Arial",
					"outlettype" : [ "" ]
				}

			}
, 			{
				"box" : 				{
					"maxclass" : "message",
					"fontsize" : 12.0,
					"patching_rect" : [ 228.0, 316.0, 116.0, 18.0 ],
					"numinlets" : 2,
					"id" : "obj-18",
					"numoutlets" : 1,
					"fontname" : "Arial",
					"outlettype" : [ "" ]
				}

			}
, 			{
				"box" : 				{
					"maxclass" : "newobj",
					"text" : "Lreg",
					"fontsize" : 12.0,
					"patching_rect" : [ 279.0, 259.0, 52.0, 20.0 ],
					"numinlets" : 2,
					"id" : "obj-20",
					"numoutlets" : 2,
					"fontname" : "Arial",
					"outlettype" : [ "", "" ]
				}

			}
, 			{
				"box" : 				{
					"maxclass" : "comment",
					"text" : "Lreg",
					"fontsize" : 24.0,
					"patching_rect" : [ 10.0, 7.0, 63.0, 34.0 ],
					"numinlets" : 1,
					"id" : "obj-21",
					"numoutlets" : 0,
					"fontname" : "Arial"
				}

			}
, 			{
				"box" : 				{
					"maxclass" : "comment",
					"text" : "An object to keep track of note status.",
					"fontsize" : 14.0,
					"patching_rect" : [ 75.0, 18.0, 262.0, 23.0 ],
					"numinlets" : 1,
					"id" : "obj-22",
					"numoutlets" : 0,
					"fontname" : "Arial"
				}

			}
, 			{
				"box" : 				{
					"maxclass" : "comment",
					"text" : "Keeping track of which notes are playing is a common enough problem that it deserves its own object.",
					"linecount" : 2,
					"fontsize" : 12.0,
					"patching_rect" : [ 6.0, 61.0, 335.0, 34.0 ],
					"numinlets" : 1,
					"id" : "obj-23",
					"numoutlets" : 0,
					"fontname" : "Arial"
				}

			}
, 			{
				"box" : 				{
					"maxclass" : "comment",
					"text" : "Lreg is similar to bag- an int from 0 to 127 received in the left will be stored or forgotten depending on the last value in the right. 0 makes it forget.",
					"linecount" : 3,
					"fontsize" : 12.0,
					"patching_rect" : [ 6.0, 94.0, 295.0, 48.0 ],
					"numinlets" : 1,
					"id" : "obj-24",
					"numoutlets" : 0,
					"fontname" : "Arial"
				}

			}
, 			{
				"box" : 				{
					"maxclass" : "comment",
					"text" : "The difference is that the result is reported immediately, and if there are no values currently stored, the right outlet will bang.",
					"linecount" : 3,
					"fontsize" : 12.0,
					"patching_rect" : [ 6.0, 142.0, 240.0, 48.0 ],
					"numinlets" : 1,
					"id" : "obj-25",
					"numoutlets" : 0,
					"fontname" : "Arial"
				}

			}
, 			{
				"box" : 				{
					"maxclass" : "comment",
					"text" : "The output is a list, naturally.",
					"fontsize" : 12.0,
					"patching_rect" : [ 7.0, 203.0, 171.0, 20.0 ],
					"numinlets" : 1,
					"id" : "obj-26",
					"numoutlets" : 0,
					"fontname" : "Arial"
				}

			}
, 			{
				"box" : 				{
					"maxclass" : "comment",
					"text" : "Lreg has two modes. With no argment, a value is completely forgotten when one instance arrives with the right input at 0. If there is an argment of 1, a value has to be deleted as many times as it has been added before it is gone from the list.",
					"linecount" : 5,
					"fontsize" : 12.0,
					"patching_rect" : [ 348.0, 193.0, 272.0, 75.0 ],
					"numinlets" : 1,
					"id" : "obj-27",
					"numoutlets" : 0,
					"fontname" : "Arial"
				}

			}
, 			{
				"box" : 				{
					"maxclass" : "comment",
					"text" : "Lists are itered and processed as seperate ints.",
					"fontsize" : 12.0,
					"patching_rect" : [ 309.0, 116.0, 293.0, 20.0 ],
					"numinlets" : 1,
					"id" : "obj-28",
					"numoutlets" : 0,
					"fontname" : "Arial"
				}

			}
, 			{
				"box" : 				{
					"maxclass" : "comment",
					"text" : "Peter Elsea 2000",
					"fontsize" : 12.0,
					"patching_rect" : [ 18.0, 384.0, 121.0, 20.0 ],
					"numinlets" : 1,
					"id" : "obj-29",
					"numoutlets" : 0,
					"fontname" : "Arial"
				}

			}
, 			{
				"box" : 				{
					"maxclass" : "comment",
					"text" : "University of California, Santa Cruz",
					"fontsize" : 12.0,
					"patching_rect" : [ 18.0, 404.0, 211.0, 20.0 ],
					"numinlets" : 1,
					"id" : "obj-30",
					"numoutlets" : 0,
					"fontname" : "Arial"
				}

			}
 ],
		"lines" : [ 			{
				"patchline" : 				{
					"source" : [ "obj-1", 0 ],
					"destination" : [ "obj-16", 0 ],
					"hidden" : 0,
					"midpoints" : [ 276.5, 195.0, 243.0, 195.0, 243.0, 195.0, 230.5, 195.0 ]
				}

			}
, 			{
				"patchline" : 				{
					"source" : [ "obj-17", 0 ],
					"destination" : [ "obj-18", 0 ],
					"hidden" : 0,
					"midpoints" : [ 321.5, 307.0, 237.5, 307.0 ]
				}

			}
, 			{
				"patchline" : 				{
					"source" : [ "obj-16", 0 ],
					"destination" : [ "obj-20", 0 ],
					"hidden" : 0,
					"midpoints" : [ 230.5, 225.0, 288.5, 225.0 ]
				}

			}
, 			{
				"patchline" : 				{
					"source" : [ "obj-20", 1 ],
					"destination" : [ "obj-17", 0 ],
					"hidden" : 0,
					"midpoints" : [  ]
				}

			}
, 			{
				"patchline" : 				{
					"source" : [ "obj-20", 1 ],
					"destination" : [ "obj-15", 0 ],
					"hidden" : 0,
					"midpoints" : [  ]
				}

			}
, 			{
				"patchline" : 				{
					"source" : [ "obj-13", 0 ],
					"destination" : [ "obj-12", 0 ],
					"hidden" : 0,
					"midpoints" : [ 469.5, 379.0, 402.5, 379.0 ]
				}

			}
, 			{
				"patchline" : 				{
					"source" : [ "obj-3", 0 ],
					"destination" : [ "obj-10", 0 ],
					"hidden" : 0,
					"midpoints" : [ 369.0, 317.0, 453.5, 317.0 ]
				}

			}
, 			{
				"patchline" : 				{
					"source" : [ "obj-8", 0 ],
					"destination" : [ "obj-10", 0 ],
					"hidden" : 0,
					"midpoints" : [ 387.5, 317.0, 453.5, 317.0 ]
				}

			}
, 			{
				"patchline" : 				{
					"source" : [ "obj-7", 0 ],
					"destination" : [ "obj-10", 0 ],
					"hidden" : 0,
					"midpoints" : [  ]
				}

			}
, 			{
				"patchline" : 				{
					"source" : [ "obj-5", 0 ],
					"destination" : [ "obj-10", 0 ],
					"hidden" : 0,
					"midpoints" : [ 511.5, 317.0, 453.5, 317.0 ]
				}

			}
, 			{
				"patchline" : 				{
					"source" : [ "obj-6", 0 ],
					"destination" : [ "obj-10", 0 ],
					"hidden" : 0,
					"midpoints" : [ 489.5, 317.0, 453.5, 317.0 ]
				}

			}
, 			{
				"patchline" : 				{
					"source" : [ "obj-9", 0 ],
					"destination" : [ "obj-10", 1 ],
					"hidden" : 0,
					"midpoints" : [ 545.0, 317.0, 480.5, 317.0 ]
				}

			}
, 			{
				"patchline" : 				{
					"source" : [ "obj-2", 0 ],
					"destination" : [ "obj-10", 1 ],
					"hidden" : 0,
					"midpoints" : [ 566.5, 317.0, 480.5, 317.0 ]
				}

			}
, 			{
				"patchline" : 				{
					"source" : [ "obj-10", 1 ],
					"destination" : [ "obj-13", 0 ],
					"hidden" : 0,
					"midpoints" : [  ]
				}

			}
, 			{
				"patchline" : 				{
					"source" : [ "obj-10", 1 ],
					"destination" : [ "obj-14", 0 ],
					"hidden" : 0,
					"midpoints" : [  ]
				}

			}
, 			{
				"patchline" : 				{
					"source" : [ "obj-20", 0 ],
					"destination" : [ "obj-18", 1 ],
					"hidden" : 0,
					"midpoints" : [ 288.5, 307.0, 334.5, 307.0 ]
				}

			}
, 			{
				"patchline" : 				{
					"source" : [ "obj-10", 0 ],
					"destination" : [ "obj-12", 1 ],
					"hidden" : 0,
					"midpoints" : [ 453.5, 379.0, 499.5, 379.0 ]
				}

			}
, 			{
				"patchline" : 				{
					"source" : [ "obj-16", 1 ],
					"destination" : [ "obj-20", 1 ],
					"hidden" : 0,
					"midpoints" : [  ]
				}

			}
 ]
	}

}
