{
	"patcher" : 	{
		"fileversion" : 1,
		"rect" : [ 34.0, 47.0, 420.0, 368.0 ],
		"bglocked" : 0,
		"defrect" : [ 34.0, 47.0, 420.0, 368.0 ],
		"openrect" : [ 0.0, 0.0, 0.0, 0.0 ],
		"openinpresentation" : 0,
		"default_fontsize" : 12.0,
		"default_fontface" : 0,
		"default_fontname" : "Arial",
		"gridonopen" : 0,
		"gridsize" : [ 15.0, 15.0 ],
		"gridsnaponopen" : 0,
		"toolbarvisible" : 1,
		"boxanimatetime" : 200,
		"imprint" : 0,
		"metadata" : [  ],
		"boxes" : [ 			{
				"box" : 				{
					"maxclass" : "newobj",
					"text" : "p numerals",
					"fontsize" : 12.0,
					"patching_rect" : [ 181.0, 261.0, 70.0, 20.0 ],
					"numinlets" : 0,
					"id" : "obj-1",
					"numoutlets" : 0,
					"fontname" : "Arial",
					"patcher" : 					{
						"fileversion" : 1,
						"rect" : [ 134.0, 186.0, 577.0, 471.0 ],
						"bglocked" : 0,
						"defrect" : [ 134.0, 186.0, 577.0, 471.0 ],
						"openrect" : [ 0.0, 0.0, 0.0, 0.0 ],
						"openinpresentation" : 0,
						"default_fontsize" : 12.0,
						"default_fontface" : 0,
						"default_fontname" : "Arial",
						"gridonopen" : 0,
						"gridsize" : [ 15.0, 15.0 ],
						"gridsnaponopen" : 0,
						"toolbarvisible" : 1,
						"boxanimatetime" : 200,
						"imprint" : 0,
						"metadata" : [  ],
						"boxes" : [ 							{
								"box" : 								{
									"maxclass" : "newobj",
									"text" : "route int float",
									"fontsize" : 12.0,
									"patching_rect" : [ 50.0, 207.0, 81.0, 20.0 ],
									"numinlets" : 1,
									"id" : "obj-1",
									"numoutlets" : 3,
									"fontname" : "Arial",
									"outlettype" : [ "", "", "" ]
								}

							}
, 							{
								"box" : 								{
									"maxclass" : "message",
									"text" : "45 49",
									"fontsize" : 12.0,
									"patching_rect" : [ 40.0, 95.0, 39.0, 18.0 ],
									"numinlets" : 2,
									"id" : "obj-2",
									"numoutlets" : 1,
									"fontname" : "Arial",
									"outlettype" : [ "" ]
								}

							}
, 							{
								"box" : 								{
									"maxclass" : "number",
									"triscale" : 0.9,
									"fontsize" : 12.0,
									"patching_rect" : [ 249.0, 215.0, 37.0, 20.0 ],
									"numinlets" : 1,
									"bgcolor" : [ 0.866667, 0.866667, 0.866667, 1.0 ],
									"id" : "obj-3",
									"htextcolor" : [ 0.870588, 0.870588, 0.870588, 1.0 ],
									"numoutlets" : 2,
									"fontname" : "Arial",
									"outlettype" : [ "int", "bang" ]
								}

							}
, 							{
								"box" : 								{
									"maxclass" : "comment",
									"text" : "46 = .",
									"fontsize" : 12.0,
									"patching_rect" : [ 420.0, 406.0, 39.0, 20.0 ],
									"numinlets" : 1,
									"id" : "obj-4",
									"numoutlets" : 0,
									"fontname" : "Arial"
								}

							}
, 							{
								"box" : 								{
									"maxclass" : "comment",
									"text" : "45= -",
									"fontsize" : 12.0,
									"patching_rect" : [ 420.0, 393.0, 38.0, 20.0 ],
									"numinlets" : 1,
									"id" : "obj-5",
									"numoutlets" : 0,
									"fontname" : "Arial"
								}

							}
, 							{
								"box" : 								{
									"maxclass" : "comment",
									"text" : "57 = 9",
									"fontsize" : 12.0,
									"patching_rect" : [ 420.0, 380.0, 42.0, 20.0 ],
									"numinlets" : 1,
									"id" : "obj-6",
									"numoutlets" : 0,
									"fontname" : "Arial"
								}

							}
, 							{
								"box" : 								{
									"maxclass" : "comment",
									"text" : "56 = 8",
									"fontsize" : 12.0,
									"patching_rect" : [ 420.0, 367.0, 42.0, 20.0 ],
									"numinlets" : 1,
									"id" : "obj-7",
									"numoutlets" : 0,
									"fontname" : "Arial"
								}

							}
, 							{
								"box" : 								{
									"maxclass" : "comment",
									"text" : "55 = 7",
									"fontsize" : 12.0,
									"patching_rect" : [ 420.0, 354.0, 42.0, 20.0 ],
									"numinlets" : 1,
									"id" : "obj-8",
									"numoutlets" : 0,
									"fontname" : "Arial"
								}

							}
, 							{
								"box" : 								{
									"maxclass" : "comment",
									"text" : "54 = 6",
									"fontsize" : 12.0,
									"patching_rect" : [ 420.0, 341.0, 42.0, 20.0 ],
									"numinlets" : 1,
									"id" : "obj-9",
									"numoutlets" : 0,
									"fontname" : "Arial"
								}

							}
, 							{
								"box" : 								{
									"maxclass" : "comment",
									"text" : "53 = 5",
									"fontsize" : 12.0,
									"patching_rect" : [ 420.0, 328.0, 42.0, 20.0 ],
									"numinlets" : 1,
									"id" : "obj-10",
									"numoutlets" : 0,
									"fontname" : "Arial"
								}

							}
, 							{
								"box" : 								{
									"maxclass" : "comment",
									"text" : "52 = 4",
									"fontsize" : 12.0,
									"patching_rect" : [ 420.0, 315.0, 42.0, 20.0 ],
									"numinlets" : 1,
									"id" : "obj-11",
									"numoutlets" : 0,
									"fontname" : "Arial"
								}

							}
, 							{
								"box" : 								{
									"maxclass" : "comment",
									"text" : "51 = 3",
									"fontsize" : 12.0,
									"patching_rect" : [ 420.0, 302.0, 42.0, 20.0 ],
									"numinlets" : 1,
									"id" : "obj-12",
									"numoutlets" : 0,
									"fontname" : "Arial"
								}

							}
, 							{
								"box" : 								{
									"maxclass" : "comment",
									"text" : "50 = 2",
									"fontsize" : 12.0,
									"patching_rect" : [ 420.0, 289.0, 42.0, 20.0 ],
									"numinlets" : 1,
									"id" : "obj-13",
									"numoutlets" : 0,
									"fontname" : "Arial"
								}

							}
, 							{
								"box" : 								{
									"maxclass" : "comment",
									"text" : "49 = 1",
									"fontsize" : 12.0,
									"patching_rect" : [ 420.0, 276.0, 42.0, 20.0 ],
									"numinlets" : 1,
									"id" : "obj-14",
									"numoutlets" : 0,
									"fontname" : "Arial"
								}

							}
, 							{
								"box" : 								{
									"maxclass" : "message",
									"text" : "1",
									"fontsize" : 12.0,
									"patching_rect" : [ 311.0, 188.0, 18.0, 18.0 ],
									"numinlets" : 2,
									"id" : "obj-15",
									"numoutlets" : 1,
									"fontname" : "Arial",
									"outlettype" : [ "" ]
								}

							}
, 							{
								"box" : 								{
									"maxclass" : "message",
									"text" : "0",
									"fontsize" : 12.0,
									"patching_rect" : [ 288.0, 188.0, 18.0, 18.0 ],
									"numinlets" : 2,
									"id" : "obj-16",
									"numoutlets" : 1,
									"fontname" : "Arial",
									"outlettype" : [ "" ]
								}

							}
, 							{
								"box" : 								{
									"maxclass" : "message",
									"text" : "1",
									"fontsize" : 12.0,
									"patching_rect" : [ 428.0, 191.0, 18.0, 18.0 ],
									"numinlets" : 2,
									"id" : "obj-17",
									"numoutlets" : 1,
									"fontname" : "Arial",
									"outlettype" : [ "" ]
								}

							}
, 							{
								"box" : 								{
									"maxclass" : "message",
									"text" : "0",
									"fontsize" : 12.0,
									"patching_rect" : [ 401.0, 191.0, 18.0, 18.0 ],
									"numinlets" : 2,
									"id" : "obj-18",
									"numoutlets" : 1,
									"fontname" : "Arial",
									"outlettype" : [ "" ]
								}

							}
, 							{
								"box" : 								{
									"maxclass" : "message",
									"text" : "breakatspace $1",
									"fontsize" : 12.0,
									"patching_rect" : [ 411.0, 216.0, 97.0, 18.0 ],
									"numinlets" : 2,
									"id" : "obj-19",
									"numoutlets" : 1,
									"fontname" : "Arial",
									"outlettype" : [ "" ]
								}

							}
, 							{
								"box" : 								{
									"maxclass" : "message",
									"text" : "116 104 101 32 119 104 111 108 101 32 57 32 121 97 114 100 115",
									"linecount" : 2,
									"fontsize" : 12.0,
									"patching_rect" : [ 303.0, 48.0, 201.0, 32.0 ],
									"numinlets" : 2,
									"id" : "obj-20",
									"numoutlets" : 1,
									"fontname" : "Arial",
									"outlettype" : [ "" ]
								}

							}
, 							{
								"box" : 								{
									"maxclass" : "message",
									"text" : "55 32 100 97 121 115 32 97 32 119 101 101 107",
									"linecount" : 2,
									"fontsize" : 12.0,
									"patching_rect" : [ 303.0, 144.0, 148.0, 32.0 ],
									"numinlets" : 2,
									"id" : "obj-21",
									"numoutlets" : 1,
									"fontname" : "Arial",
									"outlettype" : [ "" ]
								}

							}
, 							{
								"box" : 								{
									"maxclass" : "message",
									"text" : "52 32 48 32 57 57",
									"fontsize" : 12.0,
									"patching_rect" : [ 177.0, 69.0, 105.0, 18.0 ],
									"numinlets" : 2,
									"id" : "obj-22",
									"numoutlets" : 1,
									"fontname" : "Arial",
									"outlettype" : [ "" ]
								}

							}
, 							{
								"box" : 								{
									"maxclass" : "message",
									"text" : "115 101 118 101 110 32 100 97 121 115 32 97 32 119 101 101 107",
									"linecount" : 3,
									"fontsize" : 12.0,
									"patching_rect" : [ 308.0, 89.0, 145.0, 46.0 ],
									"numinlets" : 2,
									"id" : "obj-23",
									"numoutlets" : 1,
									"fontname" : "Arial",
									"outlettype" : [ "" ]
								}

							}
, 							{
								"box" : 								{
									"maxclass" : "message",
									"text" : "45 49 50 46 53",
									"fontsize" : 12.0,
									"patching_rect" : [ 84.0, 95.0, 89.0, 18.0 ],
									"numinlets" : 2,
									"id" : "obj-24",
									"numoutlets" : 1,
									"fontname" : "Arial",
									"outlettype" : [ "" ]
								}

							}
, 							{
								"box" : 								{
									"maxclass" : "message",
									"text" : "numeralsasints $1",
									"fontsize" : 12.0,
									"patching_rect" : [ 295.0, 216.0, 110.0, 18.0 ],
									"numinlets" : 2,
									"id" : "obj-25",
									"numoutlets" : 1,
									"fontname" : "Arial",
									"outlettype" : [ "" ]
								}

							}
, 							{
								"box" : 								{
									"maxclass" : "message",
									"text" : "57 56",
									"fontsize" : 12.0,
									"patching_rect" : [ 39.0, 71.0, 39.0, 18.0 ],
									"numinlets" : 2,
									"id" : "obj-26",
									"numoutlets" : 1,
									"fontname" : "Arial",
									"outlettype" : [ "" ]
								}

							}
, 							{
								"box" : 								{
									"maxclass" : "message",
									"text" : "45 49 32 48 57 46 51",
									"fontsize" : 12.0,
									"patching_rect" : [ 177.0, 95.0, 126.0, 18.0 ],
									"numinlets" : 2,
									"id" : "obj-27",
									"numoutlets" : 1,
									"fontname" : "Arial",
									"outlettype" : [ "" ]
								}

							}
, 							{
								"box" : 								{
									"maxclass" : "message",
									"text" : "49 55 46 49 53",
									"fontsize" : 12.0,
									"patching_rect" : [ 83.0, 71.0, 89.0, 18.0 ],
									"numinlets" : 2,
									"id" : "obj-28",
									"numoutlets" : 1,
									"fontname" : "Arial",
									"outlettype" : [ "" ]
								}

							}
, 							{
								"box" : 								{
									"maxclass" : "flonum",
									"triscale" : 0.9,
									"fontsize" : 12.0,
									"patching_rect" : [ 82.0, 262.0, 51.0, 20.0 ],
									"numinlets" : 1,
									"bgcolor" : [ 0.866667, 0.866667, 0.866667, 1.0 ],
									"id" : "obj-29",
									"htextcolor" : [ 0.870588, 0.870588, 0.870588, 1.0 ],
									"numoutlets" : 2,
									"fontname" : "Arial",
									"outlettype" : [ "float", "bang" ]
								}

							}
, 							{
								"box" : 								{
									"maxclass" : "number",
									"triscale" : 0.9,
									"fontsize" : 12.0,
									"patching_rect" : [ 23.0, 263.0, 51.0, 20.0 ],
									"numinlets" : 1,
									"bgcolor" : [ 0.866667, 0.866667, 0.866667, 1.0 ],
									"id" : "obj-30",
									"htextcolor" : [ 0.870588, 0.870588, 0.870588, 1.0 ],
									"numoutlets" : 2,
									"fontname" : "Arial",
									"outlettype" : [ "int", "bang" ]
								}

							}
, 							{
								"box" : 								{
									"maxclass" : "message",
									"text" : "\"-1\"",
									"fontsize" : 12.0,
									"patching_rect" : [ 140.0, 263.0, 54.0, 18.0 ],
									"numinlets" : 2,
									"id" : "obj-31",
									"numoutlets" : 1,
									"fontname" : "Arial",
									"outlettype" : [ "" ]
								}

							}
, 							{
								"box" : 								{
									"maxclass" : "newobj",
									"text" : "Lstring",
									"fontsize" : 12.0,
									"patching_rect" : [ 147.0, 180.0, 47.0, 20.0 ],
									"numinlets" : 1,
									"id" : "obj-33",
									"numoutlets" : 1,
									"fontname" : "Arial",
									"outlettype" : [ "" ]
								}

							}
, 							{
								"box" : 								{
									"maxclass" : "comment",
									"text" : "Normally, ascii codes that translate as ints or floats will be output that way, so Lstring gives the same mixed output that message does.",
									"linecount" : 2,
									"fontsize" : 12.0,
									"patching_rect" : [ 19.0, 324.0, 391.0, 34.0 ],
									"numinlets" : 1,
									"id" : "obj-34",
									"numoutlets" : 0,
									"fontname" : "Arial"
								}

							}
, 							{
								"box" : 								{
									"maxclass" : "comment",
									"text" : "If breakatspace or numeralsasints are off, numerals will come out as symbols.",
									"linecount" : 2,
									"fontsize" : 12.0,
									"patching_rect" : [ 18.0, 356.0, 328.0, 34.0 ],
									"numinlets" : 1,
									"id" : "obj-35",
									"numoutlets" : 0,
									"fontname" : "Arial"
								}

							}
, 							{
								"box" : 								{
									"maxclass" : "comment",
									"text" : "48 = 0",
									"fontsize" : 12.0,
									"patching_rect" : [ 420.0, 263.0, 42.0, 20.0 ],
									"numinlets" : 1,
									"id" : "obj-36",
									"numoutlets" : 0,
									"fontname" : "Arial"
								}

							}
, 							{
								"box" : 								{
									"maxclass" : "comment",
									"text" : "Numerals",
									"fontsize" : 24.0,
									"patching_rect" : [ 9.0, 5.0, 111.0, 34.0 ],
									"numinlets" : 1,
									"id" : "obj-37",
									"numoutlets" : 0,
									"fontname" : "Arial"
								}

							}
, 							{
								"box" : 								{
									"maxclass" : "comment",
									"text" : "PQE",
									"fontsize" : 12.0,
									"patching_rect" : [ 20.0, 396.0, 48.0, 20.0 ],
									"numinlets" : 1,
									"id" : "obj-38",
									"numoutlets" : 0,
									"fontname" : "Arial"
								}

							}
 ],
						"lines" : [ 							{
								"patchline" : 								{
									"source" : [ "obj-3", 0 ],
									"destination" : [ "obj-33", 0 ],
									"hidden" : 1,
									"midpoints" : [ 258.5, 237.0, 204.0, 237.0, 204.0, 165.0, 156.5, 165.0 ]
								}

							}
, 							{
								"patchline" : 								{
									"source" : [ "obj-1", 2 ],
									"destination" : [ "obj-31", 1 ],
									"hidden" : 0,
									"midpoints" : [ 121.5, 242.0, 184.5, 242.0 ]
								}

							}
, 							{
								"patchline" : 								{
									"source" : [ "obj-1", 0 ],
									"destination" : [ "obj-30", 0 ],
									"hidden" : 0,
									"midpoints" : [  ]
								}

							}
, 							{
								"patchline" : 								{
									"source" : [ "obj-33", 0 ],
									"destination" : [ "obj-1", 0 ],
									"hidden" : 0,
									"midpoints" : [ 156.5, 201.0, 59.5, 201.0 ]
								}

							}
, 							{
								"patchline" : 								{
									"source" : [ "obj-1", 1 ],
									"destination" : [ "obj-29", 0 ],
									"hidden" : 0,
									"midpoints" : [  ]
								}

							}
, 							{
								"patchline" : 								{
									"source" : [ "obj-21", 0 ],
									"destination" : [ "obj-33", 0 ],
									"hidden" : 1,
									"midpoints" : [ 312.5, 177.0, 156.5, 177.0 ]
								}

							}
, 							{
								"patchline" : 								{
									"source" : [ "obj-25", 0 ],
									"destination" : [ "obj-33", 0 ],
									"hidden" : 1,
									"midpoints" : [ 304.5, 246.0, 204.0, 246.0, 204.0, 165.0, 156.5, 165.0 ]
								}

							}
, 							{
								"patchline" : 								{
									"source" : [ "obj-26", 0 ],
									"destination" : [ "obj-33", 0 ],
									"hidden" : 1,
									"midpoints" : [ 48.5, 90.0, 81.0, 90.0, 81.0, 165.0, 156.5, 165.0 ]
								}

							}
, 							{
								"patchline" : 								{
									"source" : [ "obj-27", 0 ],
									"destination" : [ "obj-33", 0 ],
									"hidden" : 1,
									"midpoints" : [ 186.5, 165.0, 156.5, 165.0 ]
								}

							}
, 							{
								"patchline" : 								{
									"source" : [ "obj-28", 0 ],
									"destination" : [ "obj-33", 0 ],
									"hidden" : 1,
									"midpoints" : [ 92.5, 90.0, 81.0, 90.0, 81.0, 165.0, 156.5, 165.0 ]
								}

							}
, 							{
								"patchline" : 								{
									"source" : [ "obj-24", 0 ],
									"destination" : [ "obj-33", 0 ],
									"hidden" : 1,
									"midpoints" : [ 93.5, 165.0, 156.5, 165.0 ]
								}

							}
, 							{
								"patchline" : 								{
									"source" : [ "obj-22", 0 ],
									"destination" : [ "obj-33", 0 ],
									"hidden" : 1,
									"midpoints" : [ 186.5, 87.0, 174.0, 87.0, 174.0, 165.0, 156.5, 165.0 ]
								}

							}
, 							{
								"patchline" : 								{
									"source" : [ "obj-23", 0 ],
									"destination" : [ "obj-33", 0 ],
									"hidden" : 1,
									"midpoints" : [ 317.5, 141.0, 156.5, 141.0 ]
								}

							}
, 							{
								"patchline" : 								{
									"source" : [ "obj-20", 0 ],
									"destination" : [ "obj-33", 0 ],
									"hidden" : 1,
									"midpoints" : [ 312.5, 81.0, 282.0, 81.0, 282.0, 90.0, 174.0, 90.0, 174.0, 165.0, 156.5, 165.0 ]
								}

							}
, 							{
								"patchline" : 								{
									"source" : [ "obj-19", 0 ],
									"destination" : [ "obj-33", 0 ],
									"hidden" : 1,
									"midpoints" : [ 420.5, 246.0, 204.0, 246.0, 204.0, 165.0, 156.5, 165.0 ]
								}

							}
, 							{
								"patchline" : 								{
									"source" : [ "obj-2", 0 ],
									"destination" : [ "obj-33", 0 ],
									"hidden" : 1,
									"midpoints" : [ 49.5, 165.0, 156.5, 165.0 ]
								}

							}
, 							{
								"patchline" : 								{
									"source" : [ "obj-16", 0 ],
									"destination" : [ "obj-25", 0 ],
									"hidden" : 0,
									"midpoints" : [  ]
								}

							}
, 							{
								"patchline" : 								{
									"source" : [ "obj-15", 0 ],
									"destination" : [ "obj-25", 0 ],
									"hidden" : 0,
									"midpoints" : [  ]
								}

							}
, 							{
								"patchline" : 								{
									"source" : [ "obj-17", 0 ],
									"destination" : [ "obj-19", 0 ],
									"hidden" : 0,
									"midpoints" : [  ]
								}

							}
, 							{
								"patchline" : 								{
									"source" : [ "obj-18", 0 ],
									"destination" : [ "obj-19", 0 ],
									"hidden" : 0,
									"midpoints" : [  ]
								}

							}
 ]
					}
,
					"saved_object_attributes" : 					{
						"fontface" : 0,
						"fontsize" : 12.0,
						"default_fontface" : 0,
						"default_fontname" : "Arial",
						"globalpatchername" : "",
						"fontname" : "Arial",
						"default_fontsize" : 12.0
					}

				}

			}
, 			{
				"box" : 				{
					"maxclass" : "message",
					"text" : "1",
					"fontsize" : 12.0,
					"patching_rect" : [ 225.0, 114.0, 18.0, 18.0 ],
					"numinlets" : 2,
					"id" : "obj-2",
					"numoutlets" : 1,
					"fontname" : "Arial",
					"outlettype" : [ "" ]
				}

			}
, 			{
				"box" : 				{
					"maxclass" : "message",
					"text" : "0",
					"fontsize" : 12.0,
					"patching_rect" : [ 197.0, 114.0, 18.0, 18.0 ],
					"numinlets" : 2,
					"id" : "obj-3",
					"numoutlets" : 1,
					"fontname" : "Arial",
					"outlettype" : [ "" ]
				}

			}
, 			{
				"box" : 				{
					"maxclass" : "number",
					"triscale" : 0.9,
					"fontsize" : 12.0,
					"patching_rect" : [ 25.0, 127.0, 37.0, 20.0 ],
					"numinlets" : 1,
					"bgcolor" : [ 0.866667, 0.866667, 0.866667, 1.0 ],
					"id" : "obj-4",
					"htextcolor" : [ 0.870588, 0.870588, 0.870588, 1.0 ],
					"numoutlets" : 2,
					"fontname" : "Arial",
					"outlettype" : [ "int", "bang" ]
				}

			}
, 			{
				"box" : 				{
					"maxclass" : "message",
					"text" : "breakatspace $1",
					"fontsize" : 12.0,
					"patching_rect" : [ 197.0, 142.0, 97.0, 18.0 ],
					"numinlets" : 2,
					"id" : "obj-5",
					"numoutlets" : 1,
					"fontname" : "Arial",
					"outlettype" : [ "" ]
				}

			}
, 			{
				"box" : 				{
					"maxclass" : "message",
					"text" : "89 101 115 33",
					"linecount" : 2,
					"fontsize" : 12.0,
					"patching_rect" : [ 186.0, 70.0, 57.0, 32.0 ],
					"numinlets" : 2,
					"id" : "obj-6",
					"numoutlets" : 1,
					"fontname" : "Arial",
					"outlettype" : [ "" ]
				}

			}
, 			{
				"box" : 				{
					"maxclass" : "newobj",
					"text" : "thresh",
					"fontsize" : 12.0,
					"patching_rect" : [ 101.0, 129.0, 43.0, 20.0 ],
					"numinlets" : 2,
					"id" : "obj-7",
					"numoutlets" : 1,
					"fontname" : "Arial",
					"outlettype" : [ "" ]
				}

			}
, 			{
				"box" : 				{
					"maxclass" : "newobj",
					"text" : "spell",
					"fontsize" : 12.0,
					"patching_rect" : [ 101.0, 96.0, 35.0, 20.0 ],
					"numinlets" : 1,
					"id" : "obj-8",
					"numoutlets" : 1,
					"fontname" : "Arial",
					"outlettype" : [ "int" ]
				}

			}
, 			{
				"box" : 				{
					"maxclass" : "message",
					"text" : "does it work?",
					"fontsize" : 12.0,
					"patching_rect" : [ 101.0, 70.0, 83.0, 18.0 ],
					"numinlets" : 2,
					"id" : "obj-9",
					"numoutlets" : 1,
					"fontname" : "Arial",
					"outlettype" : [ "" ]
				}

			}
, 			{
				"box" : 				{
					"maxclass" : "message",
					"fontsize" : 12.0,
					"patching_rect" : [ 101.0, 233.0, 50.0, 18.0 ],
					"numinlets" : 2,
					"id" : "obj-10",
					"numoutlets" : 1,
					"fontname" : "Arial",
					"outlettype" : [ "" ]
				}

			}
, 			{
				"box" : 				{
					"maxclass" : "newobj",
					"text" : "Lstring",
					"fontsize" : 12.0,
					"patching_rect" : [ 100.0, 180.0, 47.0, 20.0 ],
					"numinlets" : 1,
					"id" : "obj-12",
					"numoutlets" : 1,
					"fontname" : "Arial",
					"outlettype" : [ "" ]
				}

			}
, 			{
				"box" : 				{
					"maxclass" : "comment",
					"text" : "Lstring",
					"fontsize" : 24.0,
					"patching_rect" : [ 28.0, 10.0, 96.0, 34.0 ],
					"numinlets" : 1,
					"id" : "obj-13",
					"numoutlets" : 0,
					"fontname" : "Arial"
				}

			}
, 			{
				"box" : 				{
					"maxclass" : "comment",
					"text" : "An object to convert lists of ASCII values to symbols.",
					"linecount" : 2,
					"fontsize" : 14.0,
					"patching_rect" : [ 131.0, 15.0, 185.0, 39.0 ],
					"numinlets" : 1,
					"id" : "obj-14",
					"numoutlets" : 0,
					"fontname" : "Arial"
				}

			}
, 			{
				"box" : 				{
					"maxclass" : "comment",
					"text" : "Ascii in -",
					"fontsize" : 12.0,
					"patching_rect" : [ 24.0, 102.0, 60.0, 20.0 ],
					"numinlets" : 1,
					"id" : "obj-15",
					"numoutlets" : 0,
					"fontname" : "Arial"
				}

			}
, 			{
				"box" : 				{
					"maxclass" : "comment",
					"text" : "symbols out",
					"fontsize" : 12.0,
					"patching_rect" : [ 23.0, 235.0, 73.0, 20.0 ],
					"numinlets" : 1,
					"id" : "obj-16",
					"numoutlets" : 0,
					"fontname" : "Arial"
				}

			}
, 			{
				"box" : 				{
					"maxclass" : "comment",
					"text" : "Normally, spaces (ascii 32) delimit symbols.",
					"linecount" : 2,
					"fontsize" : 12.0,
					"patching_rect" : [ 184.0, 173.0, 135.0, 34.0 ],
					"numinlets" : 1,
					"id" : "obj-17",
					"numoutlets" : 0,
					"fontname" : "Arial"
				}

			}
, 			{
				"box" : 				{
					"maxclass" : "comment",
					"text" : "breakatspace 0 will turn this off, and a list will produce one long symbol with spaces included.",
					"linecount" : 3,
					"fontsize" : 12.0,
					"patching_rect" : [ 184.0, 210.0, 186.0, 48.0 ],
					"numinlets" : 1,
					"id" : "obj-18",
					"numoutlets" : 0,
					"fontname" : "Arial"
				}

			}
, 			{
				"box" : 				{
					"maxclass" : "comment",
					"text" : "Peter Elsea 2002",
					"fontsize" : 12.0,
					"patching_rect" : [ 7.0, 296.0, 121.0, 20.0 ],
					"numinlets" : 1,
					"id" : "obj-19",
					"numoutlets" : 0,
					"fontname" : "Arial"
				}

			}
, 			{
				"box" : 				{
					"maxclass" : "comment",
					"text" : "University of California, Santa Cruz",
					"fontsize" : 12.0,
					"patching_rect" : [ 167.0, 295.0, 219.0, 20.0 ],
					"numinlets" : 1,
					"id" : "obj-20",
					"numoutlets" : 0,
					"fontname" : "Arial"
				}

			}
 ],
		"lines" : [ 			{
				"patchline" : 				{
					"source" : [ "obj-9", 0 ],
					"destination" : [ "obj-8", 0 ],
					"hidden" : 0,
					"midpoints" : [  ]
				}

			}
, 			{
				"patchline" : 				{
					"source" : [ "obj-8", 0 ],
					"destination" : [ "obj-7", 0 ],
					"hidden" : 0,
					"midpoints" : [  ]
				}

			}
, 			{
				"patchline" : 				{
					"source" : [ "obj-6", 0 ],
					"destination" : [ "obj-12", 0 ],
					"hidden" : 0,
					"midpoints" : [ 195.5, 102.0, 147.0, 102.0, 147.0, 156.0, 147.0, 156.0, 147.0, 168.0, 109.5, 168.0 ]
				}

			}
, 			{
				"patchline" : 				{
					"source" : [ "obj-7", 0 ],
					"destination" : [ "obj-12", 0 ],
					"hidden" : 0,
					"midpoints" : [  ]
				}

			}
, 			{
				"patchline" : 				{
					"source" : [ "obj-5", 0 ],
					"destination" : [ "obj-12", 0 ],
					"hidden" : 0,
					"midpoints" : [ 206.5, 168.0, 159.0, 168.0, 159.0, 168.0, 109.5, 168.0 ]
				}

			}
, 			{
				"patchline" : 				{
					"source" : [ "obj-4", 0 ],
					"destination" : [ "obj-12", 0 ],
					"hidden" : 0,
					"midpoints" : [ 34.5, 160.0, 109.5, 160.0 ]
				}

			}
, 			{
				"patchline" : 				{
					"source" : [ "obj-3", 0 ],
					"destination" : [ "obj-5", 0 ],
					"hidden" : 0,
					"midpoints" : [  ]
				}

			}
, 			{
				"patchline" : 				{
					"source" : [ "obj-2", 0 ],
					"destination" : [ "obj-5", 0 ],
					"hidden" : 0,
					"midpoints" : [ 234.5, 135.0, 206.5, 135.0 ]
				}

			}
, 			{
				"patchline" : 				{
					"source" : [ "obj-12", 0 ],
					"destination" : [ "obj-10", 1 ],
					"hidden" : 0,
					"midpoints" : [ 109.5, 214.0, 141.5, 214.0 ]
				}

			}
 ]
	}

}
