{
	"patcher" : 	{
		"fileversion" : 1,
		"appversion" : 		{
			"major" : 7,
			"minor" : 2,
			"revision" : 3,
			"architecture" : "x86",
			"modernui" : 1
		}
,
		"openrect" : [ 20.0, 20.0, 332.0, 588.0 ],
		"bglocked" : 0,
		"openinpresentation" : 1,
		"default_fontsize" : 12.0,
		"default_fontface" : 0,
		"default_fontname" : "Arial",
		"gridonopen" : 2,
		"gridsize" : [ 15.0, 15.0 ],
		"gridsnaponopen" : 2,
		"objectsnaponopen" : 0,
		"statusbarvisible" : 2,
		"toolbarvisible" : 1,
		"lefttoolbarpinned" : 0,
		"toptoolbarpinned" : 0,
		"righttoolbarpinned" : 0,
		"bottomtoolbarpinned" : 0,
		"toolbars_unpinned_last_save" : 0,
		"tallnewobj" : 0,
		"boxanimatetime" : 200,
		"enablehscroll" : 1,
		"enablevscroll" : 1,
		"devicewidth" : 0.0,
		"description" : "",
		"digest" : "",
		"tags" : "",
		"style" : "",
		"subpatcher_template" : "",
		"boxes" : [ 			{
				"box" : 				{
					"id" : "obj-59",
					"maxclass" : "newobj",
					"numinlets" : 1,
					"numoutlets" : 2,
					"outlettype" : [ "jit_matrix", "" ],
					"patching_rect" : [ 15.0, 855.0, 47.0, 22.0 ],
					"style" : "",
					"text" : "jit.slide"
				}

			}
, 			{
				"box" : 				{
					"id" : "obj-47",
					"maxclass" : "message",
					"numinlets" : 2,
					"numoutlets" : 1,
					"outlettype" : [ "" ],
					"patching_rect" : [ 420.0, 975.0, 61.0, 22.0 ],
					"style" : "",
					"text" : "visible $1"
				}

			}
, 			{
				"box" : 				{
					"id" : "obj-45",
					"maxclass" : "newobj",
					"numinlets" : 1,
					"numoutlets" : 0,
					"patching_rect" : [ 420.0, 1005.0, 72.0, 22.0 ],
					"style" : "",
					"text" : "s to_world_"
				}

			}
, 			{
				"box" : 				{
					"id" : "obj-44",
					"maxclass" : "message",
					"numinlets" : 2,
					"numoutlets" : 1,
					"outlettype" : [ "" ],
					"patching_rect" : [ 345.0, 975.0, 63.0, 22.0 ],
					"style" : "",
					"text" : "enable $1"
				}

			}
, 			{
				"box" : 				{
					"id" : "obj-41",
					"maxclass" : "message",
					"numinlets" : 2,
					"numoutlets" : 1,
					"outlettype" : [ "" ],
					"patching_rect" : [ 435.0, 900.0, 29.5, 22.0 ],
					"style" : "",
					"text" : "1"
				}

			}
, 			{
				"box" : 				{
					"id" : "obj-39",
					"maxclass" : "newobj",
					"numinlets" : 2,
					"numoutlets" : 2,
					"outlettype" : [ "", "" ],
					"patching_rect" : [ 345.0, 870.0, 73.0, 22.0 ],
					"style" : "",
					"text" : "routepass 0"
				}

			}
, 			{
				"box" : 				{
					"id" : "obj-29",
					"maxclass" : "newobj",
					"numinlets" : 1,
					"numoutlets" : 2,
					"outlettype" : [ "jit_gl_texture", "" ],
					"patching_rect" : [ 375.0, 1050.0, 140.0, 22.0 ],
					"style" : "",
					"text" : "jit.gl.texture @filter none"
				}

			}
, 			{
				"box" : 				{
					"id" : "obj-28",
					"maxclass" : "newobj",
					"numinlets" : 1,
					"numoutlets" : 2,
					"outlettype" : [ "jit_matrix", "" ],
					"patching_rect" : [ 375.0, 1095.0, 116.0, 22.0 ],
					"style" : "",
					"text" : "jit.gl.videoplane test"
				}

			}
, 			{
				"box" : 				{
					"id" : "obj-19",
					"maxclass" : "newobj",
					"numinlets" : 1,
					"numoutlets" : 1,
					"outlettype" : [ "jit_matrix" ],
					"patching_rect" : [ 15.0, 480.0, 169.0, 22.0 ],
					"style" : "",
					"text" : "j.gl_readback% 320 240 luma"
				}

			}
, 			{
				"box" : 				{
					"id" : "obj-15",
					"maxclass" : "newobj",
					"numinlets" : 0,
					"numoutlets" : 1,
					"outlettype" : [ "" ],
					"patching_rect" : [ 630.0, 555.0, 70.0, 22.0 ],
					"style" : "",
					"text" : "r to_world_"
				}

			}
, 			{
				"box" : 				{
					"id" : "obj-9",
					"maxclass" : "newobj",
					"numinlets" : 0,
					"numoutlets" : 1,
					"outlettype" : [ "" ],
					"patching_rect" : [ 15.0, 15.0, 119.0, 22.0 ],
					"style" : "",
					"text" : "r candle_drawbang_"
				}

			}
, 			{
				"box" : 				{
					"id" : "obj-6",
					"maxclass" : "newobj",
					"numinlets" : 1,
					"numoutlets" : 0,
					"patching_rect" : [ 585.0, 645.0, 121.0, 22.0 ],
					"style" : "",
					"text" : "s candle_drawbang_"
				}

			}
, 			{
				"box" : 				{
					"args" : [ "cue_manager" ],
					"bgmode" : 0,
					"border" : 0,
					"clickthrough" : 0,
					"enablehscroll" : 0,
					"enablevscroll" : 0,
					"id" : "obj-4",
					"lockeddragscroll" : 0,
					"maxclass" : "bpatcher",
					"name" : "cue_manager.module.maxpat",
					"numinlets" : 1,
					"numoutlets" : 1,
					"offset" : [ 0.0, 0.0 ],
					"outlettype" : [ "" ],
					"patching_rect" : [ 435.0, 180.0, 300.0, 175.0 ],
					"presentation_rect" : [ 0.0, 0.0, 300.0, 175.0 ],
					"viewvisibility" : 1
				}

			}
, 			{
				"box" : 				{
					"id" : "obj-51",
					"maxclass" : "newobj",
					"numinlets" : 1,
					"numoutlets" : 2,
					"outlettype" : [ "", "" ],
					"patching_rect" : [ 165.0, 705.0, 100.0, 22.0 ],
					"style" : "",
					"text" : "motion%.module"
				}

			}
, 			{
				"box" : 				{
					"args" : [ "tp_slide" ],
					"bgmode" : 0,
					"border" : 0,
					"clickthrough" : 0,
					"enablehscroll" : 0,
					"enablevscroll" : 0,
					"id" : "obj-50",
					"lockeddragscroll" : 0,
					"maxclass" : "bpatcher",
					"name" : "gl_tp_slide.module.maxpat",
					"numinlets" : 2,
					"numoutlets" : 2,
					"offset" : [ 0.0, 0.0 ],
					"outlettype" : [ "", "" ],
					"patching_rect" : [ 15.0, 390.0, 300.0, 70.0 ],
					"presentation" : 1,
					"presentation_rect" : [ 15.0, 285.0, 300.0, 70.0 ],
					"viewvisibility" : 1
				}

			}
, 			{
				"box" : 				{
					"args" : [ "gl_rota" ],
					"bgmode" : 0,
					"border" : 0,
					"clickthrough" : 0,
					"enablehscroll" : 0,
					"enablevscroll" : 0,
					"id" : "obj-49",
					"lockeddragscroll" : 0,
					"maxclass" : "bpatcher",
					"name" : "gl_rota.module.maxpat",
					"numinlets" : 1,
					"numoutlets" : 2,
					"offset" : [ 0.0, 0.0 ],
					"outlettype" : [ "", "" ],
					"patching_rect" : [ 15.0, 255.0, 300.0, 105.0 ],
					"presentation" : 1,
					"presentation_rect" : [ 15.0, 165.0, 300.0, 105.0 ],
					"viewvisibility" : 1
				}

			}
, 			{
				"box" : 				{
					"id" : "obj-36",
					"maxclass" : "newobj",
					"numinlets" : 1,
					"numoutlets" : 1,
					"outlettype" : [ "jit_gl_texture" ],
					"patching_rect" : [ 15.0, 225.0, 93.0, 22.0 ],
					"style" : "",
					"text" : "j.gl_rgb2luma%"
				}

			}
, 			{
				"box" : 				{
					"args" : [ "cc_brcosa" ],
					"bgmode" : 0,
					"border" : 0,
					"clickthrough" : 0,
					"enablehscroll" : 0,
					"enablevscroll" : 0,
					"id" : "obj-35",
					"lockeddragscroll" : 0,
					"maxclass" : "bpatcher",
					"name" : "gl_cc_brcosa.module.maxpat",
					"numinlets" : 2,
					"numoutlets" : 2,
					"offset" : [ 0.0, 0.0 ],
					"outlettype" : [ "", "" ],
					"patching_rect" : [ 15.0, 135.0, 300.0, 70.0 ],
					"presentation" : 1,
					"presentation_rect" : [ 15.0, 90.0, 300.0, 70.0 ],
					"viewvisibility" : 1
				}

			}
, 			{
				"box" : 				{
					"args" : [ "syphonclient" ],
					"bgmode" : 0,
					"border" : 0,
					"clickthrough" : 0,
					"enablehscroll" : 0,
					"enablevscroll" : 0,
					"id" : "obj-18",
					"lockeddragscroll" : 0,
					"maxclass" : "bpatcher",
					"name" : "gl_syphonclient.module.maxpat",
					"numinlets" : 1,
					"numoutlets" : 2,
					"offset" : [ 0.0, 0.0 ],
					"outlettype" : [ "jit_gl_texture", "" ],
					"patching_rect" : [ 15.0, 60.0, 300.0, 70.0 ],
					"presentation" : 1,
					"presentation_rect" : [ 15.0, 15.0, 300.0, 70.0 ],
					"viewvisibility" : 1
				}

			}
, 			{
				"box" : 				{
					"id" : "obj-11",
					"maxclass" : "toggle",
					"numinlets" : 1,
					"numoutlets" : 1,
					"outlettype" : [ "int" ],
					"parameter_enable" : 0,
					"patching_rect" : [ 585.0, 555.0, 24.0, 24.0 ],
					"style" : ""
				}

			}
, 			{
				"box" : 				{
					"id" : "obj-2",
					"maxclass" : "newobj",
					"numinlets" : 1,
					"numoutlets" : 3,
					"outlettype" : [ "", "bang", "" ],
					"patching_rect" : [ 585.0, 600.0, 135.0, 22.0 ],
					"style" : "",
					"text" : "jit.world test @enable 1"
				}

			}
, 			{
				"box" : 				{
					"candycane" : 4,
					"contdata" : 1,
					"id" : "obj-16",
					"maxclass" : "multislider",
					"numinlets" : 1,
					"numoutlets" : 2,
					"outlettype" : [ "", "" ],
					"parameter_enable" : 0,
					"patching_rect" : [ 59.0, 1094.0, 210.0, 60.0 ],
					"presentation" : 1,
					"presentation_rect" : [ 15.0, 540.0, 150.0, 35.0 ],
					"setminmax" : [ 0.0, 255.0 ],
					"setstyle" : 1,
					"settype" : 0,
					"size" : 16,
					"style" : ""
				}

			}
, 			{
				"box" : 				{
					"fontname" : "Arial",
					"fontsize" : 10.0,
					"id" : "obj-66",
					"maxclass" : "comment",
					"numinlets" : 1,
					"numoutlets" : 0,
					"patching_rect" : [ 360.0, 210.0, 65.0, 18.0 ],
					"presentation" : 1,
					"presentation_rect" : [ 75.0, 448.0, 36.0, 18.0 ],
					"style" : "",
					"text" : "pixles"
				}

			}
, 			{
				"box" : 				{
					"fontname" : "Arial",
					"fontsize" : 12.0,
					"id" : "obj-64",
					"maxclass" : "newobj",
					"numinlets" : 2,
					"numoutlets" : 1,
					"outlettype" : [ "" ],
					"patcher" : 					{
						"fileversion" : 1,
						"appversion" : 						{
							"major" : 7,
							"minor" : 2,
							"revision" : 3,
							"architecture" : "x86",
							"modernui" : 1
						}
,
						"rect" : [ 34.0, 79.0, 553.0, 638.0 ],
						"bglocked" : 0,
						"openinpresentation" : 0,
						"default_fontsize" : 12.0,
						"default_fontface" : 0,
						"default_fontname" : "Arial",
						"gridonopen" : 1,
						"gridsize" : [ 15.0, 15.0 ],
						"gridsnaponopen" : 1,
						"objectsnaponopen" : 1,
						"statusbarvisible" : 2,
						"toolbarvisible" : 1,
						"lefttoolbarpinned" : 0,
						"toptoolbarpinned" : 0,
						"righttoolbarpinned" : 0,
						"bottomtoolbarpinned" : 0,
						"toolbars_unpinned_last_save" : 0,
						"tallnewobj" : 0,
						"boxanimatetime" : 200,
						"enablehscroll" : 1,
						"enablevscroll" : 1,
						"devicewidth" : 0.0,
						"description" : "",
						"digest" : "",
						"tags" : "",
						"style" : "",
						"subpatcher_template" : "",
						"boxes" : [ 							{
								"box" : 								{
									"attr" : "amp",
									"fontname" : "Arial",
									"fontsize" : 12.0,
									"id" : "obj-16",
									"maxclass" : "attrui",
									"numinlets" : 1,
									"numoutlets" : 1,
									"outlettype" : [ "" ],
									"patching_rect" : [ 75.0, 105.0, 150.0, 22.0 ],
									"style" : ""
								}

							}
, 							{
								"box" : 								{
									"fontname" : "Arial",
									"fontsize" : 12.0,
									"id" : "obj-30",
									"maxclass" : "newobj",
									"numinlets" : 2,
									"numoutlets" : 1,
									"outlettype" : [ "int" ],
									"patching_rect" : [ 15.0, 105.0, 32.5, 22.0 ],
									"style" : "",
									"text" : "+ 1"
								}

							}
, 							{
								"box" : 								{
									"fontname" : "Arial",
									"fontsize" : 12.0,
									"id" : "obj-22",
									"maxclass" : "newobj",
									"numinlets" : 2,
									"numoutlets" : 2,
									"outlettype" : [ "", "" ],
									"patching_rect" : [ 15.0, 129.0, 54.0, 22.0 ],
									"style" : "",
									"text" : "gate 2 1"
								}

							}
, 							{
								"box" : 								{
									"fontname" : "Arial",
									"fontsize" : 12.0,
									"id" : "obj-11",
									"maxclass" : "newobj",
									"numinlets" : 1,
									"numoutlets" : 2,
									"outlettype" : [ "jit_matrix", "" ],
									"patching_rect" : [ 50.0, 159.0, 75.0, 22.0 ],
									"style" : "",
									"text" : "jit.normalize"
								}

							}
, 							{
								"box" : 								{
									"comment" : "",
									"id" : "obj-34",
									"maxclass" : "inlet",
									"numinlets" : 0,
									"numoutlets" : 1,
									"outlettype" : [ "" ],
									"patching_rect" : [ 105.0, 45.0, 25.0, 25.0 ],
									"style" : ""
								}

							}
, 							{
								"box" : 								{
									"comment" : "",
									"id" : "obj-36",
									"maxclass" : "inlet",
									"numinlets" : 0,
									"numoutlets" : 1,
									"outlettype" : [ "jit_matrix" ],
									"patching_rect" : [ 50.0, 45.0, 25.0, 25.0 ],
									"style" : ""
								}

							}
, 							{
								"box" : 								{
									"comment" : "",
									"id" : "obj-43",
									"maxclass" : "outlet",
									"numinlets" : 1,
									"numoutlets" : 0,
									"patching_rect" : [ 15.0, 210.0, 25.0, 25.0 ],
									"style" : ""
								}

							}
 ],
						"lines" : [ 							{
								"patchline" : 								{
									"destination" : [ "obj-43", 0 ],
									"disabled" : 0,
									"hidden" : 0,
									"source" : [ "obj-11", 0 ]
								}

							}
, 							{
								"patchline" : 								{
									"destination" : [ "obj-11", 0 ],
									"disabled" : 0,
									"hidden" : 0,
									"source" : [ "obj-16", 0 ]
								}

							}
, 							{
								"patchline" : 								{
									"destination" : [ "obj-11", 0 ],
									"disabled" : 0,
									"hidden" : 0,
									"source" : [ "obj-22", 1 ]
								}

							}
, 							{
								"patchline" : 								{
									"destination" : [ "obj-43", 0 ],
									"disabled" : 0,
									"hidden" : 0,
									"source" : [ "obj-22", 0 ]
								}

							}
, 							{
								"patchline" : 								{
									"destination" : [ "obj-22", 0 ],
									"disabled" : 0,
									"hidden" : 0,
									"source" : [ "obj-30", 0 ]
								}

							}
, 							{
								"patchline" : 								{
									"destination" : [ "obj-30", 0 ],
									"disabled" : 0,
									"hidden" : 0,
									"source" : [ "obj-34", 0 ]
								}

							}
, 							{
								"patchline" : 								{
									"destination" : [ "obj-22", 1 ],
									"disabled" : 0,
									"hidden" : 0,
									"source" : [ "obj-36", 0 ]
								}

							}
 ]
					}
,
					"patching_rect" : [ 15.0, 900.0, 48.0, 22.0 ],
					"saved_object_attributes" : 					{
						"description" : "",
						"digest" : "",
						"globalpatchername" : "",
						"style" : "",
						"tags" : ""
					}
,
					"style" : "",
					"text" : "p norm"
				}

			}
, 			{
				"box" : 				{
					"activebgoncolor" : [ 0.0, 0.736264, 0.727584, 1.0 ],
					"id" : "obj-65",
					"maxclass" : "live.text",
					"numinlets" : 1,
					"numoutlets" : 2,
					"outlettype" : [ "", "" ],
					"parameter_enable" : 1,
					"patching_rect" : [ 135.0, 885.0, 57.0, 19.0 ],
					"presentation" : 1,
					"presentation_rect" : [ 15.0, 450.0, 61.0, 14.0 ],
					"saved_attribute_attributes" : 					{
						"valueof" : 						{
							"parameter_longname" : "live.text[1]",
							"parameter_shortname" : "live.text",
							"parameter_type" : 2,
							"parameter_mmax" : 1.0,
							"parameter_enum" : [ "val1", "val2" ]
						}

					}
,
					"text" : "normalize",
					"texton" : "normalized",
					"varname" : "live.text[1]"
				}

			}
, 			{
				"box" : 				{
					"fontname" : "Arial",
					"fontsize" : 12.0,
					"id" : "obj-30",
					"maxclass" : "newobj",
					"numinlets" : 2,
					"numoutlets" : 1,
					"outlettype" : [ "int" ],
					"patching_rect" : [ 15.0, 630.0, 32.5, 22.0 ],
					"style" : "",
					"text" : "+ 1"
				}

			}
, 			{
				"box" : 				{
					"fontname" : "Arial",
					"fontsize" : 12.0,
					"id" : "obj-22",
					"maxclass" : "newobj",
					"numinlets" : 2,
					"numoutlets" : 2,
					"outlettype" : [ "", "" ],
					"patching_rect" : [ 15.0, 660.0, 165.0, 22.0 ],
					"style" : "",
					"text" : "gate 2 1"
				}

			}
, 			{
				"box" : 				{
					"fontname" : "Arial",
					"fontsize" : 10.0,
					"id" : "obj-58",
					"maxclass" : "comment",
					"numinlets" : 1,
					"numoutlets" : 0,
					"patching_rect" : [ 360.0, 240.0, 65.0, 18.0 ],
					"presentation" : 1,
					"presentation_rect" : [ 119.0, 480.0, 45.0, 18.0 ],
					"style" : "",
					"text" : "preview"
				}

			}
, 			{
				"box" : 				{
					"activebgcolor" : [ 0.769065, 0.826823, 0.881053, 1.0 ],
					"activebgoncolor" : [ 1.0, 0.248104, 0.0, 0.86 ],
					"bgcolor" : [ 0.798891, 0.858889, 0.915222, 1.0 ],
					"id" : "obj-57",
					"maxclass" : "live.tab",
					"num_lines_patching" : 1,
					"num_lines_presentation" : 1,
					"numinlets" : 1,
					"numoutlets" : 3,
					"outlettype" : [ "", "", "float" ],
					"parameter_enable" : 1,
					"patching_rect" : [ 15.0, 600.0, 112.0, 21.0 ],
					"presentation" : 1,
					"presentation_rect" : [ 15.0, 390.0, 143.0, 20.0 ],
					"rounded" : 4.0,
					"saved_attribute_attributes" : 					{
						"valueof" : 						{
							"parameter_longname" : "live.tab[1]",
							"parameter_shortname" : "live.tab",
							"parameter_type" : 2,
							"parameter_enum" : [ "presence", "motion" ],
							"parameter_unitstyle" : 0
						}

					}
,
					"varname" : "live.tab[1]"
				}

			}
, 			{
				"box" : 				{
					"activebgcolor" : [ 0.818206, 0.879655, 0.93735, 1.0 ],
					"activebgoncolor" : [ 0.121063, 0.784169, 0.063646, 1.0 ],
					"bgcolor" : [ 0.802563, 0.862837, 0.919428, 0.3 ],
					"bgoncolor" : [ 0.814963, 0.839843, 0.884916, 1.0 ],
					"bordercolor" : [ 0.362167, 0.431208, 0.531508, 1.0 ],
					"id" : "obj-56",
					"maxclass" : "live.tab",
					"num_lines_patching" : 1,
					"num_lines_presentation" : 1,
					"numinlets" : 1,
					"numoutlets" : 3,
					"outlettype" : [ "", "", "float" ],
					"parameter_enable" : 1,
					"patching_rect" : [ 345.0, 825.0, 100.0, 20.0 ],
					"presentation" : 1,
					"presentation_rect" : [ 15.0, 480.0, 107.0, 17.0 ],
					"rounded" : 3.84999,
					"saved_attribute_attributes" : 					{
						"valueof" : 						{
							"parameter_longname" : "live.tab",
							"parameter_shortname" : "live.tab",
							"parameter_type" : 2,
							"parameter_enum" : [ "off", "dirct", "post", "pix" ],
							"parameter_unitstyle" : 0
						}

					}
,
					"spacing_x" : 3.06,
					"spacing_y" : 3.49999,
					"varname" : "live.tab"
				}

			}
, 			{
				"box" : 				{
					"fontname" : "Arial",
					"fontsize" : 12.0,
					"id" : "obj-55",
					"maxclass" : "newobj",
					"numinlets" : 4,
					"numoutlets" : 1,
					"outlettype" : [ "" ],
					"patching_rect" : [ 255.0, 975.0, 76.5, 22.0 ],
					"style" : "",
					"text" : "switch 3"
				}

			}
, 			{
				"box" : 				{
					"fontname" : "Arial",
					"fontsize" : 10.0,
					"id" : "obj-8",
					"maxclass" : "comment",
					"numinlets" : 1,
					"numoutlets" : 0,
					"patching_rect" : [ 105.0, 975.0, 66.0, 18.0 ],
					"presentation" : 1,
					"presentation_rect" : [ 32.0, 510.0, 48.0, 18.0 ],
					"style" : "",
					"text" : "lights off"
				}

			}
, 			{
				"box" : 				{
					"id" : "obj-5",
					"maxclass" : "button",
					"numinlets" : 1,
					"numoutlets" : 1,
					"outlettype" : [ "bang" ],
					"patching_rect" : [ 75.0, 975.0, 20.0, 20.0 ],
					"presentation" : 1,
					"presentation_rect" : [ 15.0, 510.0, 17.0, 17.0 ],
					"style" : ""
				}

			}
, 			{
				"box" : 				{
					"fontname" : "Arial",
					"fontsize" : 12.0,
					"id" : "obj-3",
					"maxclass" : "message",
					"numinlets" : 2,
					"numoutlets" : 1,
					"outlettype" : [ "" ],
					"patching_rect" : [ 75.0, 1005.0, 168.0, 22.0 ],
					"style" : "",
					"text" : "0 0 0 0 0 0 0 0 0 0 0 0 0 0 0 0"
				}

			}
, 			{
				"box" : 				{
					"fontname" : "Arial",
					"fontsize" : 12.0,
					"id" : "obj-14",
					"maxclass" : "newobj",
					"numinlets" : 1,
					"numoutlets" : 2,
					"outlettype" : [ "", "" ],
					"patching_rect" : [ 15.0, 1005.0, 43.0, 22.0 ],
					"style" : "",
					"text" : "jit.spill"
				}

			}
, 			{
				"box" : 				{
					"fontname" : "Arial",
					"fontsize" : 12.0,
					"id" : "obj-13",
					"maxclass" : "newobj",
					"numinlets" : 1,
					"numoutlets" : 2,
					"outlettype" : [ "", "" ],
					"patching_rect" : [ 15.0, 1260.0, 171.0, 22.0 ],
					"style" : "",
					"text" : "imp.artnet.controller @alt_ip 1"
				}

			}
, 			{
				"box" : 				{
					"fontname" : "Arial",
					"fontsize" : 12.0,
					"id" : "obj-12",
					"maxclass" : "newobj",
					"numinlets" : 1,
					"numoutlets" : 2,
					"outlettype" : [ "jit_matrix", "" ],
					"patching_rect" : [ 15.0, 765.0, 126.0, 22.0 ],
					"style" : "",
					"text" : "cv.jit.resize @size 4 4"
				}

			}
, 			{
				"box" : 				{
					"attr" : "slide_down",
					"id" : "obj-60",
					"maxclass" : "attrui",
					"numinlets" : 1,
					"numoutlets" : 1,
					"outlettype" : [ "" ],
					"patching_rect" : [ 75.0, 810.0, 150.0, 22.0 ],
					"presentation" : 1,
					"presentation_rect" : [ 15.0, 420.0, 150.0, 22.0 ],
					"style" : ""
				}

			}
 ],
		"lines" : [ 			{
				"patchline" : 				{
					"destination" : [ "obj-2", 0 ],
					"disabled" : 0,
					"hidden" : 0,
					"source" : [ "obj-11", 0 ]
				}

			}
, 			{
				"patchline" : 				{
					"destination" : [ "obj-59", 0 ],
					"disabled" : 0,
					"hidden" : 0,
					"source" : [ "obj-12", 0 ]
				}

			}
, 			{
				"patchline" : 				{
					"destination" : [ "obj-13", 0 ],
					"disabled" : 0,
					"hidden" : 0,
					"source" : [ "obj-14", 0 ]
				}

			}
, 			{
				"patchline" : 				{
					"destination" : [ "obj-2", 0 ],
					"disabled" : 0,
					"hidden" : 0,
					"source" : [ "obj-15", 0 ]
				}

			}
, 			{
				"patchline" : 				{
					"destination" : [ "obj-13", 0 ],
					"disabled" : 0,
					"hidden" : 0,
					"midpoints" : [ 68.5, 1164.0, 24.5, 1164.0 ],
					"source" : [ "obj-16", 0 ]
				}

			}
, 			{
				"patchline" : 				{
					"destination" : [ "obj-35", 0 ],
					"disabled" : 0,
					"hidden" : 0,
					"source" : [ "obj-18", 0 ]
				}

			}
, 			{
				"patchline" : 				{
					"destination" : [ "obj-22", 1 ],
					"disabled" : 0,
					"hidden" : 0,
					"midpoints" : [ 24.5, 585.0, 170.5, 585.0 ],
					"source" : [ "obj-19", 0 ]
				}

			}
, 			{
				"patchline" : 				{
					"destination" : [ "obj-6", 0 ],
					"disabled" : 0,
					"hidden" : 0,
					"midpoints" : [ 652.5, 633.0, 594.5, 633.0 ],
					"source" : [ "obj-2", 1 ]
				}

			}
, 			{
				"patchline" : 				{
					"destination" : [ "obj-12", 0 ],
					"disabled" : 0,
					"hidden" : 0,
					"source" : [ "obj-22", 0 ]
				}

			}
, 			{
				"patchline" : 				{
					"destination" : [ "obj-51", 0 ],
					"disabled" : 0,
					"hidden" : 0,
					"midpoints" : [ 170.5, 693.0, 174.5, 693.0 ],
					"source" : [ "obj-22", 1 ]
				}

			}
, 			{
				"patchline" : 				{
					"destination" : [ "obj-28", 0 ],
					"disabled" : 0,
					"hidden" : 0,
					"source" : [ "obj-29", 0 ]
				}

			}
, 			{
				"patchline" : 				{
					"destination" : [ "obj-13", 0 ],
					"disabled" : 0,
					"hidden" : 0,
					"midpoints" : [ 84.5, 1060.5, 24.5, 1060.5 ],
					"source" : [ "obj-3", 0 ]
				}

			}
, 			{
				"patchline" : 				{
					"destination" : [ "obj-22", 0 ],
					"disabled" : 0,
					"hidden" : 0,
					"source" : [ "obj-30", 0 ]
				}

			}
, 			{
				"patchline" : 				{
					"destination" : [ "obj-36", 0 ],
					"disabled" : 0,
					"hidden" : 0,
					"source" : [ "obj-35", 0 ]
				}

			}
, 			{
				"patchline" : 				{
					"destination" : [ "obj-49", 0 ],
					"disabled" : 0,
					"hidden" : 0,
					"source" : [ "obj-36", 0 ]
				}

			}
, 			{
				"patchline" : 				{
					"destination" : [ "obj-41", 0 ],
					"disabled" : 0,
					"hidden" : 0,
					"source" : [ "obj-39", 1 ]
				}

			}
, 			{
				"patchline" : 				{
					"destination" : [ "obj-44", 0 ],
					"disabled" : 0,
					"hidden" : 0,
					"source" : [ "obj-39", 0 ]
				}

			}
, 			{
				"patchline" : 				{
					"destination" : [ "obj-47", 0 ],
					"disabled" : 0,
					"hidden" : 0,
					"midpoints" : [ 354.5, 947.5, 429.5, 947.5 ],
					"source" : [ "obj-39", 0 ]
				}

			}
, 			{
				"patchline" : 				{
					"destination" : [ "obj-44", 0 ],
					"disabled" : 0,
					"hidden" : 0,
					"midpoints" : [ 444.5, 930.0, 354.5, 930.0 ],
					"source" : [ "obj-41", 0 ]
				}

			}
, 			{
				"patchline" : 				{
					"destination" : [ "obj-47", 0 ],
					"disabled" : 0,
					"hidden" : 0,
					"midpoints" : [ 444.5, 949.0, 429.5, 949.0 ],
					"source" : [ "obj-41", 0 ]
				}

			}
, 			{
				"patchline" : 				{
					"destination" : [ "obj-28", 0 ],
					"disabled" : 0,
					"hidden" : 0,
					"midpoints" : [ 354.5, 1080.5, 384.5, 1080.5 ],
					"source" : [ "obj-44", 0 ]
				}

			}
, 			{
				"patchline" : 				{
					"destination" : [ "obj-29", 0 ],
					"disabled" : 0,
					"hidden" : 0,
					"midpoints" : [ 354.5, 1037.0, 384.5, 1037.0 ],
					"source" : [ "obj-44", 0 ]
				}

			}
, 			{
				"patchline" : 				{
					"destination" : [ "obj-45", 0 ],
					"disabled" : 0,
					"hidden" : 0,
					"source" : [ "obj-47", 0 ]
				}

			}
, 			{
				"patchline" : 				{
					"destination" : [ "obj-50", 0 ],
					"disabled" : 0,
					"hidden" : 0,
					"source" : [ "obj-49", 0 ]
				}

			}
, 			{
				"patchline" : 				{
					"destination" : [ "obj-55", 1 ],
					"disabled" : 0,
					"hidden" : 0,
					"midpoints" : [ 24.5, 375.0, 332.0, 375.0, 332.0, 481.0, 283.666656, 481.0 ],
					"source" : [ "obj-49", 0 ]
				}

			}
, 			{
				"patchline" : 				{
					"destination" : [ "obj-3", 0 ],
					"disabled" : 0,
					"hidden" : 0,
					"source" : [ "obj-5", 0 ]
				}

			}
, 			{
				"patchline" : 				{
					"destination" : [ "obj-19", 0 ],
					"disabled" : 0,
					"hidden" : 0,
					"source" : [ "obj-50", 0 ]
				}

			}
, 			{
				"patchline" : 				{
					"destination" : [ "obj-12", 0 ],
					"disabled" : 0,
					"hidden" : 0,
					"midpoints" : [ 174.5, 748.5, 24.5, 748.5 ],
					"source" : [ "obj-51", 0 ]
				}

			}
, 			{
				"patchline" : 				{
					"destination" : [ "obj-55", 2 ],
					"disabled" : 0,
					"hidden" : 0,
					"midpoints" : [ 174.5, 747.5, 302.833344, 747.5 ],
					"source" : [ "obj-51", 0 ]
				}

			}
, 			{
				"patchline" : 				{
					"destination" : [ "obj-29", 0 ],
					"disabled" : 0,
					"hidden" : 0,
					"midpoints" : [ 264.5, 1035.0, 384.5, 1035.0 ],
					"source" : [ "obj-55", 0 ]
				}

			}
, 			{
				"patchline" : 				{
					"destination" : [ "obj-39", 0 ],
					"disabled" : 0,
					"hidden" : 0,
					"source" : [ "obj-56", 0 ]
				}

			}
, 			{
				"patchline" : 				{
					"destination" : [ "obj-55", 0 ],
					"disabled" : 0,
					"hidden" : 0,
					"midpoints" : [ 354.5, 858.0, 264.5, 858.0 ],
					"source" : [ "obj-56", 0 ]
				}

			}
, 			{
				"patchline" : 				{
					"destination" : [ "obj-30", 0 ],
					"disabled" : 0,
					"hidden" : 0,
					"source" : [ "obj-57", 0 ]
				}

			}
, 			{
				"patchline" : 				{
					"destination" : [ "obj-64", 0 ],
					"disabled" : 0,
					"hidden" : 0,
					"source" : [ "obj-59", 0 ]
				}

			}
, 			{
				"patchline" : 				{
					"destination" : [ "obj-59", 0 ],
					"disabled" : 0,
					"hidden" : 0,
					"source" : [ "obj-60", 0 ]
				}

			}
, 			{
				"patchline" : 				{
					"destination" : [ "obj-14", 0 ],
					"disabled" : 0,
					"hidden" : 0,
					"source" : [ "obj-64", 0 ]
				}

			}
, 			{
				"patchline" : 				{
					"destination" : [ "obj-55", 3 ],
					"disabled" : 0,
					"hidden" : 0,
					"midpoints" : [ 24.5, 953.0, 322.0, 953.0 ],
					"source" : [ "obj-64", 0 ]
				}

			}
, 			{
				"patchline" : 				{
					"destination" : [ "obj-64", 1 ],
					"disabled" : 0,
					"hidden" : 0,
					"source" : [ "obj-65", 0 ]
				}

			}
, 			{
				"patchline" : 				{
					"destination" : [ "obj-18", 0 ],
					"disabled" : 0,
					"hidden" : 0,
					"source" : [ "obj-9", 0 ]
				}

			}
 ],
		"parameters" : 		{
			"obj-57" : [ "live.tab[1]", "live.tab", 0 ],
			"obj-65" : [ "live.text[1]", "live.text", 0 ],
			"obj-56" : [ "live.tab", "live.tab", 0 ]
		}
,
		"dependency_cache" : [ 			{
				"name" : "gl_syphonclient.module.maxpat",
				"bootpath" : "~/Documents/Max 7/Packages/Jamoma/patchers/models/openGL/texture/gl_syphonclient",
				"type" : "JSON",
				"implicit" : 1
			}
, 			{
				"name" : "gl_syphonclient.view.maxpat",
				"bootpath" : "~/Documents/Max 7/Packages/Jamoma/patchers/models/openGL/texture/gl_syphonclient",
				"type" : "JSON",
				"implicit" : 1
			}
, 			{
				"name" : "j.gl_group.panel.maxpat",
				"bootpath" : "~/Documents/Max 7/Packages/Jamoma/patchers/components/openGL/gl_group",
				"type" : "JSON",
				"implicit" : 1
			}
, 			{
				"name" : "j.gl_group.view.maxpat",
				"bootpath" : "~/Documents/Max 7/Packages/Jamoma/patchers/components/openGL/gl_group",
				"type" : "JSON",
				"implicit" : 1
			}
, 			{
				"name" : "j.list2parameter.maxpat",
				"bootpath" : "~/Documents/Max 7/Packages/Jamoma/patchers/components/data/list2parameter",
				"type" : "JSON",
				"implicit" : 1
			}
, 			{
				"name" : "gl_syphonclient.model.maxpat",
				"bootpath" : "~/Documents/Max 7/Packages/Jamoma/patchers/models/openGL/texture/gl_syphonclient",
				"type" : "JSON",
				"implicit" : 1
			}
, 			{
				"name" : "j.gl_group.model.maxpat",
				"bootpath" : "~/Documents/Max 7/Packages/Jamoma/patchers/components/openGL/gl_group",
				"type" : "JSON",
				"implicit" : 1
			}
, 			{
				"name" : "gl_cc_brcosa.module.maxpat",
				"bootpath" : "~/Github/TML-depo/TML-code/VIDEO/development/Jamoma 1.0 Shaders/gl_cc_brcosa",
				"type" : "JSON",
				"implicit" : 1
			}
, 			{
				"name" : "gl_cc_brcosa.model.maxpat",
				"bootpath" : "~/Github/TML-depo/TML-code/VIDEO/development/Jamoma 1.0 Shaders/gl_cc_brcosa",
				"type" : "JSON",
				"implicit" : 1
			}
, 			{
				"name" : "j.gl_group_slab.model.maxpat",
				"bootpath" : "~/Documents/Max 7/Packages/Jamoma/patchers/components/openGL",
				"type" : "JSON",
				"implicit" : 1
			}
, 			{
				"name" : "gl_cc_brcosa.view.maxpat",
				"bootpath" : "~/Github/TML-depo/TML-code/VIDEO/development/Jamoma 1.0 Shaders/gl_cc_brcosa",
				"type" : "JSON",
				"implicit" : 1
			}
, 			{
				"name" : "j.gl_group_slab.panel.maxpat",
				"bootpath" : "~/Documents/Max 7/Packages/Jamoma/patchers/components/openGL",
				"type" : "JSON",
				"implicit" : 1
			}
, 			{
				"name" : "j.gl_group_slab.view.maxpat",
				"bootpath" : "~/Documents/Max 7/Packages/Jamoma/patchers/components/openGL",
				"type" : "JSON",
				"implicit" : 1
			}
, 			{
				"name" : "j.gl_rgb2luma%.maxpat",
				"bootpath" : "~/Github/TML-depo/TML-code/VIDEO/development/gl_rgb2luma%",
				"type" : "JSON",
				"implicit" : 1
			}
, 			{
				"name" : "gl_rota.module.maxpat",
				"bootpath" : "~/Documents/Max 7/Packages/Jamoma/patchers/models/openGL/texture/gl_rota",
				"type" : "JSON",
				"implicit" : 1
			}
, 			{
				"name" : "gl_rota.model.maxpat",
				"bootpath" : "~/Documents/Max 7/Packages/Jamoma/patchers/models/openGL/texture/gl_rota",
				"type" : "JSON",
				"implicit" : 1
			}
, 			{
				"name" : "gl_rota.view.maxpat",
				"bootpath" : "~/Documents/Max 7/Packages/Jamoma/patchers/models/openGL/texture/gl_rota",
				"type" : "JSON",
				"implicit" : 1
			}
, 			{
				"name" : "gl_tp_slide.module.maxpat",
				"bootpath" : "~/Github/TML-depo/TML-code/VIDEO/development/Jamoma 1.0 Shaders/gl_tp_slide",
				"type" : "JSON",
				"implicit" : 1
			}
, 			{
				"name" : "gl_tp_slide.model.maxpat",
				"bootpath" : "~/Github/TML-depo/TML-code/VIDEO/development/Jamoma 1.0 Shaders/gl_tp_slide",
				"type" : "JSON",
				"implicit" : 1
			}
, 			{
				"name" : "gl_tp_slide.view.maxpat",
				"bootpath" : "~/Github/TML-depo/TML-code/VIDEO/development/Jamoma 1.0 Shaders/gl_tp_slide",
				"type" : "JSON",
				"implicit" : 1
			}
, 			{
				"name" : "motion%.module.maxpat",
				"bootpath" : "~/Documents/Max 7/Packages/Jamoma/patchers/models/video/fx/motion%",
				"type" : "JSON",
				"implicit" : 1
			}
, 			{
				"name" : "motion%.model.maxpat",
				"bootpath" : "~/Documents/Max 7/Packages/Jamoma/patchers/models/video/fx/motion%",
				"type" : "JSON",
				"implicit" : 1
			}
, 			{
				"name" : "j.motion%.maxpat",
				"bootpath" : "~/Documents/Max 7/Packages/Jamoma/patchers/components/video/motion%",
				"type" : "JSON",
				"implicit" : 1
			}
, 			{
				"name" : "j.checkplanes%.maxpat",
				"bootpath" : "~/Documents/Max 7/Packages/Jamoma/patchers/components/video/checkplanes%",
				"type" : "JSON",
				"implicit" : 1
			}
, 			{
				"name" : "j.absdiff.maxpat",
				"bootpath" : "~/Documents/Max 7/Packages/Jamoma/patchers/components/data/absdiff",
				"type" : "JSON",
				"implicit" : 1
			}
, 			{
				"name" : "j.autoscale.maxpat",
				"bootpath" : "~/Documents/Max 7/Packages/Jamoma/patchers/components/data/autoscale",
				"type" : "JSON",
				"implicit" : 1
			}
, 			{
				"name" : "j.initialized.maxpat",
				"bootpath" : "~/Documents/Max 7/Packages/Jamoma/patchers/components/data/initialized",
				"type" : "JSON",
				"implicit" : 1
			}
, 			{
				"name" : "j.passmatrixinfo%.maxpat",
				"bootpath" : "~/Documents/Max 7/Packages/Jamoma/patchers/components/video/passmatrixinfo%",
				"type" : "JSON",
				"implicit" : 1
			}
, 			{
				"name" : "j.rgb2luma%.maxpat",
				"bootpath" : "~/Documents/Max 7/Packages/Jamoma/patchers/components/video/rgb2luma%",
				"type" : "JSON",
				"implicit" : 1
			}
, 			{
				"name" : "j.sum%.maxpat",
				"bootpath" : "~/Documents/Max 7/Packages/Jamoma/patchers/components/video/sum%",
				"type" : "JSON",
				"implicit" : 1
			}
, 			{
				"name" : "motion%.view.maxpat",
				"bootpath" : "~/Documents/Max 7/Packages/Jamoma/patchers/models/video/fx/motion%",
				"type" : "JSON",
				"implicit" : 1
			}
, 			{
				"name" : "cue_manager.module.maxpat",
				"bootpath" : "~/Documents/Max 7/Packages/Jamoma/patchers/models/data/cue_manager",
				"type" : "JSON",
				"implicit" : 1
			}
, 			{
				"name" : "cue_manager.model.maxpat",
				"bootpath" : "~/Documents/Max 7/Packages/Jamoma/patchers/models/data/cue_manager",
				"type" : "JSON",
				"implicit" : 1
			}
, 			{
				"name" : "cue_manager.view.maxpat",
				"bootpath" : "~/Documents/Max 7/Packages/Jamoma/patchers/models/data/cue_manager",
				"type" : "JSON",
				"implicit" : 1
			}
, 			{
				"name" : "thru.maxpat",
				"bootpath" : "C74:/patchers/m4l/Pluggo for Live resources/patches",
				"type" : "JSON",
				"implicit" : 1
			}
, 			{
				"name" : "j.datetime.maxpat",
				"bootpath" : "~/Documents/Max 7/Packages/Jamoma/patchers/components/data/datetime",
				"type" : "JSON",
				"implicit" : 1
			}
, 			{
				"name" : "j.namespace_selector.maxpat",
				"bootpath" : "~/Documents/Max 7/Packages/Jamoma/patchers/components/namespace/namespace_selector",
				"type" : "JSON",
				"implicit" : 1
			}
, 			{
				"name" : "j.gl_readback%.maxpat",
				"bootpath" : "~/Github/TML-depo/TML-code/VIDEO/development/gl_readback%",
				"type" : "JSON",
				"implicit" : 1
			}
, 			{
				"name" : "cv.jit.resize.mxo",
				"type" : "iLaX"
			}
, 			{
				"name" : "imp.artnet.controller.mxo",
				"type" : "iLaX"
			}
, 			{
				"name" : "j.ui.mxo",
				"type" : "iLaX"
			}
, 			{
				"name" : "j.receive.mxo",
				"type" : "iLaX"
			}
, 			{
				"name" : "j.remote.mxo",
				"type" : "iLaX"
			}
, 			{
				"name" : "j.send.mxo",
				"type" : "iLaX"
			}
, 			{
				"name" : "j.view.mxo",
				"type" : "iLaX"
			}
, 			{
				"name" : "j.model.mxo",
				"type" : "iLaX"
			}
, 			{
				"name" : "j.init.mxo",
				"type" : "iLaX"
			}
, 			{
				"name" : "jit.gl.syphonclient.mxo",
				"type" : "iLaX"
			}
, 			{
				"name" : "j.parameter.mxo",
				"type" : "iLaX"
			}
, 			{
				"name" : "j.return.mxo",
				"type" : "iLaX"
			}
, 			{
				"name" : "j.message.mxo",
				"type" : "iLaX"
			}
, 			{
				"name" : "j.in.mxo",
				"type" : "iLaX"
			}
, 			{
				"name" : "j.out.mxo",
				"type" : "iLaX"
			}
, 			{
				"name" : "j.unit.mxo",
				"type" : "iLaX"
			}
, 			{
				"name" : "j.oscroute.mxo",
				"type" : "iLaX"
			}
, 			{
				"name" : "j.stats.mxo",
				"type" : "iLaX"
			}
, 			{
				"name" : "j.pass.mxo",
				"type" : "iLaX"
			}
, 			{
				"name" : "j.cue.mxo",
				"type" : "iLaX"
			}
, 			{
				"name" : "j.namespace.mxo",
				"type" : "iLaX"
			}
 ],
		"autosave" : 0
	}

}
