{
	"patcher" : 	{
		"fileversion" : 1,
		"appversion" : 		{
			"major" : 7,
			"minor" : 2,
			"revision" : 2,
			"architecture" : "x64",
			"modernui" : 1
		}
,
		"rect" : [ 702.0, -798.0, 972.0, 649.0 ],
		"editing_bgcolor" : [ 0.9, 0.9, 0.9, 1.0 ],
		"bglocked" : 0,
		"openinpresentation" : 0,
		"default_fontsize" : 12.0,
		"default_fontface" : 0,
		"default_fontname" : "Arial",
		"gridonopen" : 1,
		"gridsize" : [ 15.0, 15.0 ],
		"gridsnaponopen" : 1,
		"objectsnaponopen" : 1,
		"statusbarvisible" : 2,
		"toolbarvisible" : 1,
		"lefttoolbarpinned" : 0,
		"toptoolbarpinned" : 0,
		"righttoolbarpinned" : 0,
		"bottomtoolbarpinned" : 0,
		"toolbars_unpinned_last_save" : 0,
		"tallnewobj" : 0,
		"boxanimatetime" : 200,
		"enablehscroll" : 1,
		"enablevscroll" : 1,
		"devicewidth" : 0.0,
		"description" : "",
		"digest" : "",
		"tags" : "",
		"style" : "",
		"subpatcher_template" : "",
		"boxes" : [ 			{
				"box" : 				{
					"id" : "obj-2",
					"maxclass" : "newobj",
					"numinlets" : 0,
					"numoutlets" : 1,
					"outlettype" : [ "" ],
					"patching_rect" : [ 732.0, 14.0, 30.0, 22.0 ],
					"style" : "",
					"text" : "in 2"
				}

			}
, 			{
				"box" : 				{
					"id" : "obj-1",
					"maxclass" : "newobj",
					"numinlets" : 0,
					"numoutlets" : 1,
					"outlettype" : [ "" ],
					"patching_rect" : [ 50.0, 14.0, 30.0, 22.0 ],
					"style" : "",
					"text" : "in 1"
				}

			}
, 			{
				"box" : 				{
					"code" : "uv = norm;\n    tex00 = sample(in1, uv);\n    \n    gt = 0.0;//iGlobalTime*.2;\n    px = vec(0.99/dim.xy,0.0);\n    tex10 = sample(in2, uv - px.xz);\n    tex20 = sample(in2, uv + px.xz);\n    tex01 = sample(in2, uv - px.zy);\n    tex02 = sample(in2, uv + px.zy);\n    tex11 = sample(in2, (-1.0+0.25*cell.xy / dim.xy)\n                           * vec(sin(gt) + cos(gt),\n                                 -cos(gt) + sin(gt)));// - px.xy);\n    //vec4 tex22 = texture2D(iChannel2, uv + px.xy);\n    //tex11 = clamp(tex11*4.0,0.0,1.0);\n    \n    minDist = 2.0;\n    dist = 0.;\n    minTex = tex00;\n    //tex00 *= tex00.bgra;\r\n\td1 = length(tex00 - tex10);\n\td2 = length(tex00 - tex01);\r\n\td3 = length(tex00 - tex20);\r\n\td4 = length(tex00 - tex02);\r\n\td5 = length(tex00 - tex11);\r\n    if ((dist == length(tex00 - tex10)) < minDist){\r\n \t \t\tminDist = dist;\r\n\t\t\tminTex = tex10;\r\n\t\t\t}\r\n\tif ((dist == length(tex00 - tex01)) < minDist) {\r\n \t\t\tminDist = dist;\r\n\t\t\tminTex = tex01;\r\n\t\t\t}\n    if ((dist == length(tex00 - tex20)) < minDist) {\r\n\t\t\tminDist = dist;\r\n\t\t\tminTex = tex20;\r\n\t\t\t}\n    if ((dist == length(tex00 - tex02)) < minDist) {\r\n\t\t\tminDist = dist;\r\n\t\t\tminTex = tex02;\r\n\t\t\t}\n    \n    tex00 += smoothstep(min(min(tex00.r,tex00.g),tex00.b),max(max(tex00.r,tex00.g),tex00.b),tex00);\n    tex00 /= 2.0;\n    if ((dist == length(tex00 - tex11)) < minDist) {\n        minDist = dist; \n        minTex = tex11;///max(max(tex11.r,tex11.g),tex11.b);\n    }\n    //if ((dist = distance(tex00,tex22))<minDist) { minDist = dist; minTex = tex22; }\n    \n    out1 = in1;\n",
					"fontface" : 0,
					"fontname" : "Arial",
					"fontsize" : 12.0,
					"id" : "obj-3",
					"maxclass" : "codebox",
					"numinlets" : 2,
					"numoutlets" : 1,
					"outlettype" : [ "" ],
					"patching_rect" : [ 50.0, 67.0, 701.0, 357.0 ],
					"style" : ""
				}

			}
, 			{
				"box" : 				{
					"id" : "obj-4",
					"maxclass" : "newobj",
					"numinlets" : 1,
					"numoutlets" : 0,
					"patching_rect" : [ 57.0, 454.0, 37.0, 22.0 ],
					"style" : "",
					"text" : "out 1"
				}

			}
 ],
		"lines" : [ 			{
				"patchline" : 				{
					"destination" : [ "obj-3", 0 ],
					"disabled" : 0,
					"hidden" : 0,
					"source" : [ "obj-1", 0 ]
				}

			}
, 			{
				"patchline" : 				{
					"destination" : [ "obj-3", 1 ],
					"disabled" : 0,
					"hidden" : 0,
					"source" : [ "obj-2", 0 ]
				}

			}
, 			{
				"patchline" : 				{
					"destination" : [ "obj-4", 0 ],
					"disabled" : 0,
					"hidden" : 0,
					"source" : [ "obj-3", 0 ]
				}

			}
 ]
	}

}
